<?xml version="1.0" encoding="UTF-8" standalone="no"?>
<!DOCTYPE svg PUBLIC "-//W3C//DTD SVG 1.1//EN" "http://www.w3.org/Graphics/SVG/1.1/DTD/svg11.dtd">
<svg xmlns="http://www.w3.org/2000/svg" version="1.1" viewBox="0 0 362 379">
<g stroke-width="2.00" fill="none" stroke-linecap="butt">
<path stroke="#fafafa" vector-effect="non-scaling-stroke" d="
  M 353.94 379.00
  Q 359.82 377.74 361.75 372.25
  Q 362.25 370.83 361.41 370.05
  A 0.59 0.54 -45.3 0 0 360.64 370.09
  Q 354.74 375.69 352.81 377.81
  Q 352.28 378.40 353.19 379.00"
/>
<path stroke="#808080" vector-effect="non-scaling-stroke" d="
  M 345.44 379.00
  Q 345.53 357.42 345.51 335.84
  Q 345.50 328.59 344.76 324.71
  Q 343.64 318.88 341.19 314.06
  Q 330.45 292.97 308.06 283.19
  Q 301.94 280.52 293.91 278.67
  Q 285.21 276.68 285.13 276.66
  Q 260.16 270.42 234.36 264.29
  A 0.82 0.81 16.2 0 0 233.40 264.81
  L 202.40 354.78
  Q 201.86 356.34 201.61 354.71
  L 190.47 282.84
  A 1.14 1.13 -28.5 0 1 190.74 281.94
  Q 197.82 273.81 204.25 265.79
  Q 208.21 260.85 202.25 258.88
  Q 198.82 257.75 193.25 257.75
  Q 181.50 257.75 169.75 257.78
  Q 163.82 257.80 162.00 258.50
  Q 155.08 261.16 160.13 266.86
  Q 166.65 274.23 173.17 281.95
  A 1.41 1.40 -61.0 0 1 173.49 283.08
  L 162.18 355.95
  Q 162.02 357.01 161.66 356.00
  L 129.60 265.03
  A 0.55 0.54 -16.2 0 0 128.95 264.68
  Q 103.62 270.68 78.43 277.22
  Q 62.58 281.33 59.17 282.60
  Q 39.96 289.75 27.46 306.95
  Q 20.41 316.65 18.84 328.03
  Q 18.51 330.47 18.51 348.01
  Q 18.52 363.50 18.44 379.00"
/>
<path stroke="#808080" vector-effect="non-scaling-stroke" d="
  M 264.38 125.20
  Q 266.77 106.96 265.75 93.50
  Q 263.96 69.81 246.90 51.36
  Q 239.18 43.01 228.06 35.44
  Q 216.76 27.74 205.69 25.31
  Q 185.07 20.79 168.18 33.05
  A 1.38 1.32 28.8 0 1 167.25 33.30
  Q 149.56 31.52 134.89 40.36
  Q 120.00 49.34 111.72 63.92
  Q 107.15 71.96 104.57 82.50
  Q 99.58 102.86 103.50 124.92
  A 0.91 0.90 75.5 0 1 102.90 125.94
  Q 97.21 127.89 95.40 132.17
  Q 94.32 134.71 95.22 140.27
  Q 96.99 151.21 98.84 162.13
  Q 99.71 167.24 101.49 169.36
  Q 104.81 173.31 111.14 172.98
  A 1.26 1.26 -8.0 0 1 112.43 173.95
  Q 118.30 198.96 135.16 217.82
  Q 146.15 230.11 160.74 237.77
  Q 169.62 242.43 179.53 242.38
  Q 185.83 242.36 185.97 242.36
  Q 192.88 242.52 196.25 241.75
  Q 204.84 239.80 215.06 232.87
  Q 234.30 219.84 246.59 200.12
  Q 254.11 188.06 256.30 173.70
  A 0.85 0.84 5.6 0 1 257.18 172.98
  Q 268.32 173.62 270.05 163.21
  Q 272.21 150.24 274.11 137.22
  Q 274.58 133.99 273.63 131.88
  Q 271.25 126.57 264.81 125.74
  A 0.49 0.47 7.5 0 1 264.38 125.20"
/>
</g>
<path fill="#ffffff" d="
  M 0.00 0.00
  L 362.00 0.00
  L 362.00 379.00
  L 353.94 379.00
  Q 359.82 377.74 361.75 372.25
  Q 362.25 370.83 361.41 370.05
  A 0.59 0.54 -45.3 0 0 360.64 370.09
  Q 354.74 375.69 352.81 377.81
  Q 352.28 378.40 353.19 379.00
  L 345.44 379.00
  Q 345.53 357.42 345.51 335.84
  Q 345.50 328.59 344.76 324.71
  Q 343.64 318.88 341.19 314.06
  Q 330.45 292.97 308.06 283.19
  Q 301.94 280.52 293.91 278.67
  Q 285.21 276.68 285.13 276.66
  Q 260.16 270.42 234.36 264.29
  A 0.82 0.81 16.2 0 0 233.40 264.81
  L 202.40 354.78
  Q 201.86 356.34 201.61 354.71
  L 190.47 282.84
  A 1.14 1.13 -28.5 0 1 190.74 281.94
  Q 197.82 273.81 204.25 265.79
  Q 208.21 260.85 202.25 258.88
  Q 198.82 257.75 193.25 257.75
  Q 181.50 257.75 169.75 257.78
  Q 163.82 257.80 162.00 258.50
  Q 155.08 261.16 160.13 266.86
  Q 166.65 274.23 173.17 281.95
  A 1.41 1.40 -61.0 0 1 173.49 283.08
  L 162.18 355.95
  Q 162.02 357.01 161.66 356.00
  L 129.60 265.03
  A 0.55 0.54 -16.2 0 0 128.95 264.68
  Q 103.62 270.68 78.43 277.22
  Q 62.58 281.33 59.17 282.60
  Q 39.96 289.75 27.46 306.95
  Q 20.41 316.65 18.84 328.03
  Q 18.51 330.47 18.51 348.01
  Q 18.52 363.50 18.44 379.00
  L 0.00 379.00
  L 0.00 0.00
  Z
  M 264.38 125.20
  Q 266.77 106.96 265.75 93.50
  Q 263.96 69.81 246.90 51.36
  Q 239.18 43.01 228.06 35.44
  Q 216.76 27.74 205.69 25.31
  Q 185.07 20.79 168.18 33.05
  A 1.38 1.32 28.8 0 1 167.25 33.30
  Q 149.56 31.52 134.89 40.36
  Q 120.00 49.34 111.72 63.92
  Q 107.15 71.96 104.57 82.50
  Q 99.58 102.86 103.50 124.92
  A 0.91 0.90 75.5 0 1 102.90 125.94
  Q 97.21 127.89 95.40 132.17
  Q 94.32 134.71 95.22 140.27
  Q 96.99 151.21 98.84 162.13
  Q 99.71 167.24 101.49 169.36
  Q 104.81 173.31 111.14 172.98
  A 1.26 1.26 -8.0 0 1 112.43 173.95
  Q 118.30 198.96 135.16 217.82
  Q 146.15 230.11 160.74 237.77
  Q 169.62 242.43 179.53 242.38
  Q 185.83 242.36 185.97 242.36
  Q 192.88 242.52 196.25 241.75
  Q 204.84 239.80 215.06 232.87
  Q 234.30 219.84 246.59 200.12
  Q 254.11 188.06 256.30 173.70
  A 0.85 0.84 5.6 0 1 257.18 172.98
  Q 268.32 173.62 270.05 163.21
  Q 272.21 150.24 274.11 137.22
  Q 274.58 133.99 273.63 131.88
  Q 271.25 126.57 264.81 125.74
  A 0.49 0.47 7.5 0 1 264.38 125.20
  Z"
/>
<path fill="#000000" d="
  M 264.81 125.74
  Q 271.25 126.57 273.63 131.88
  Q 274.58 133.99 274.11 137.22
  Q 272.21 150.24 270.05 163.21
  Q 268.32 173.62 257.18 172.98
  A 0.85 0.84 5.6 0 0 256.30 173.70
  Q 254.11 188.06 246.59 200.12
  Q 234.30 219.84 215.06 232.87
  Q 204.84 239.80 196.25 241.75
  Q 192.88 242.52 185.97 242.36
  Q 185.83 242.36 179.53 242.38
  Q 169.62 242.43 160.74 237.77
  Q 146.15 230.11 135.16 217.82
  Q 118.30 198.96 112.43 173.95
  A 1.26 1.26 -8.0 0 0 111.14 172.98
  Q 104.81 173.31 101.49 169.36
  Q 99.71 167.24 98.84 162.13
  Q 96.99 151.21 95.22 140.27
  Q 94.32 134.71 95.40 132.17
  Q 97.21 127.89 102.90 125.94
  A 0.91 0.90 75.5 0 0 103.50 124.92
  Q 99.58 102.86 104.57 82.50
  Q 107.15 71.96 111.72 63.92
  Q 120.00 49.34 134.89 40.36
  Q 149.56 31.52 167.25 33.30
  A 1.38 1.32 28.8 0 0 168.18 33.05
  Q 185.07 20.79 205.69 25.31
  Q 216.76 27.74 228.06 35.44
  Q 239.18 43.01 246.90 51.36
  Q 263.96 69.81 265.75 93.50
  Q 266.77 106.96 264.38 125.20
  A 0.49 0.47 7.5 0 0 264.81 125.74
  Z"
/>
<path fill="#000000" d="
  M 345.44 379.00
  L 18.44 379.00
  Q 18.52 363.50 18.51 348.01
  Q 18.51 330.47 18.84 328.03
  Q 20.41 316.65 27.46 306.95
  Q 39.96 289.75 59.17 282.60
  Q 62.58 281.33 78.43 277.22
  Q 103.62 270.68 128.95 264.68
  A 0.55 0.54 -16.2 0 1 129.60 265.03
  L 161.66 356.00
  Q 162.02 357.01 162.18 355.95
  L 173.49 283.08
  A 1.41 1.40 -61.0 0 0 173.17 281.95
  Q 166.65 274.23 160.13 266.86
  Q 155.08 261.16 162.00 258.50
  Q 163.82 257.80 169.75 257.78
  Q 181.50 257.75 193.25 257.75
  Q 198.82 257.75 202.25 258.88
  Q 208.21 260.85 204.25 265.79
  Q 197.82 273.81 190.74 281.94
  A 1.14 1.13 -28.5 0 0 190.47 282.84
  L 201.61 354.71
  Q 201.86 356.34 202.40 354.78
  L 233.40 264.81
  A 0.82 0.81 16.2 0 1 234.36 264.29
  Q 260.16 270.42 285.13 276.66
  Q 285.21 276.68 293.91 278.67
  Q 301.94 280.52 308.06 283.19
  Q 330.45 292.97 341.19 314.06
  Q 343.64 318.88 344.76 324.71
  Q 345.50 328.59 345.51 335.84
  Q 345.53 357.42 345.44 379.00
  Z"
/>
<path fill="#f4f4f4" d="
  M 353.94 379.00
  L 353.19 379.00
  Q 352.28 378.40 352.81 377.81
  Q 354.74 375.69 360.64 370.09
  A 0.59 0.54 -45.3 0 1 361.41 370.05
  Q 362.25 370.83 361.75 372.25
  Q 359.82 377.74 353.94 379.00
  Z"
/>
</svg>
