<?xml version="1.0" encoding="UTF-8" standalone="no"?>
<!DOCTYPE svg PUBLIC "-//W3C//DTD SVG 1.1//EN" "http://www.w3.org/Graphics/SVG/1.1/DTD/svg11.dtd">
<svg xmlns="http://www.w3.org/2000/svg" version="1.1" viewBox="0 0 509 468">
<g stroke-width="2.00" fill="none" stroke-linecap="butt">
<path stroke="#fafafa" vector-effect="non-scaling-stroke" d="
  M 490.19 468.00
  Q 492.95 466.89 494.92 464.74
  Q 497.34 462.10 497.40 462.05
  Q 501.40 458.22 505.24 454.24
  Q 506.46 452.97 505.19 451.16
  A 1.27 1.26 -40.3 0 0 503.25 451.01
  L 487.65 466.98
  A 0.65 0.44 -44.1 0 0 487.49 467.73
  Q 487.64 467.90 487.94 468.00"
/>
<path stroke="#999999" vector-effect="non-scaling-stroke" d="
  M 476.19 468.00
  L 476.93 462.20"
/>
<path stroke="#fafafa" vector-effect="non-scaling-stroke" d="
  M 476.93 462.20
  Q 488.61 451.21 504.19 435.19
  Q 506.36 432.96 503.99 431.55
  A 0.75 0.68 -47.8 0 0 503.17 431.63
  Q 499.60 434.56 494.69 439.94
  Q 490.06 445.01 476.34 457.79"
/>
<path stroke="#999999" vector-effect="non-scaling-stroke" d="
  M 476.34 457.79
  Q 474.67 450.39 474.31 444.59"
/>
<path stroke="#fafafa" vector-effect="non-scaling-stroke" d="
  M 474.31 444.59
  Q 490.01 430.12 504.81 414.81
  Q 507.41 412.11 504.45 410.70
  A 0.74 0.69 -54.0 0 0 503.64 410.86
  Q 482.08 432.17 475.81 438.81
  Q 474.45 440.26 473.29 440.25"
/>
<path stroke="#999999" vector-effect="non-scaling-stroke" d="
  M 473.29 440.25
  L 470.71 428.50"
/>
<path stroke="#fafafa" vector-effect="non-scaling-stroke" d="
  M 470.71 428.50
  Q 487.90 412.31 504.01 395.04
  Q 504.03 395.02 505.56 393.52
  Q 507.55 391.58 507.23 389.88
  Q 506.79 387.56 505.12 389.24
  L 469.84 424.57"
/>
<path stroke="#999999" vector-effect="non-scaling-stroke" d="
  M 469.84 424.57
  L 465.96 412.75"
/>
<path stroke="#fafafa" vector-effect="non-scaling-stroke" d="
  M 465.96 412.75
  Q 469.92 409.77 473.38 406.25
  Q 479.41 400.11 479.45 400.07
  Q 493.72 386.38 507.09 371.81
  A 1.50 1.20 -27.3 0 0 507.48 370.94
  L 507.54 369.01
  Q 507.62 366.62 505.85 368.40
  L 464.96 409.52"
/>
<path stroke="#999999" vector-effect="non-scaling-stroke" d="
  M 464.96 409.52
  L 460.50 398.79"
/>
<path stroke="#fafafa" vector-effect="non-scaling-stroke" d="
  M 460.50 398.79
  Q 482.04 377.93 502.91 356.41
  Q 503.65 355.64 504.29 354.80
  Q 504.40 354.64 505.45 353.44
  Q 506.91 351.76 504.81 350.79
  A 1.34 1.32 -55.0 0 0 503.31 351.06
  L 459.00 395.54"
/>
<path stroke="#999999" vector-effect="non-scaling-stroke" d="
  M 459.00 395.54
  L 453.96 385.50"
/>
<path stroke="#fafafa" vector-effect="non-scaling-stroke" d="
  M 453.96 385.50
  Q 476.35 363.37 498.54 341.04
  Q 502.72 336.83 506.57 332.31
  Q 507.28 331.47 507.45 330.46
  Q 508.22 325.95 505.42 328.91
  Q 504.49 329.88 504.44 329.94
  Q 478.33 356.10 452.20 382.25"
/>
<path stroke="#999999" vector-effect="non-scaling-stroke" d="
  M 452.20 382.25
  L 446.46 373.25"
/>
<path stroke="#fafafa" vector-effect="non-scaling-stroke" d="
  M 446.46 373.25
  Q 464.19 355.38 481.97 337.54
  Q 482.04 337.47 490.63 329.06
  Q 498.47 321.39 505.61 313.07
  A 0.94 0.86 -35.3 0 0 505.80 312.21
  Q 504.83 309.30 502.69 311.62
  Q 501.96 312.42 501.91 312.47
  Q 477.86 336.64 453.75 360.75
  Q 446.40 368.10 444.04 370.00"
/>
<path stroke="#999999" vector-effect="non-scaling-stroke" d="
  M 444.04 370.00
  L 437.28 362.08"
/>
<path stroke="#fafafa" vector-effect="non-scaling-stroke" d="
  M 437.28 362.08
  Q 471.89 328.16 505.75 293.50
  Q 507.98 291.21 507.62 288.76
  Q 507.35 287.03 506.11 288.27
  Q 475.13 319.13 444.56 350.06
  Q 438.42 356.28 434.75 359.54"
/>
<path stroke="#999999" vector-effect="non-scaling-stroke" d="
  M 434.75 359.54
  L 426.70 352.99"
/>
<path stroke="#fafafa" vector-effect="non-scaling-stroke" d="
  M 426.70 352.99
  Q 463.91 315.56 501.25 278.25
  Q 502.20 277.30 503.85 275.29
  Q 503.95 275.17 505.26 273.82
  Q 507.07 271.95 504.80 270.81
  A 1.26 1.25 35.4 0 0 503.33 271.05
  Q 478.82 295.69 454.67 319.67
  Q 439.03 335.18 423.75 351.04"
/>
<path stroke="#999999" vector-effect="non-scaling-stroke" d="
  M 423.75 351.04
  L 413.71 345.75"
/>
<path stroke="#fafafa" vector-effect="non-scaling-stroke" d="
  M 413.71 345.75
  Q 458.40 301.42 502.60 256.60
  Q 505.02 254.14 507.08 251.37
  Q 507.69 250.56 507.26 248.20
  Q 507.07 247.17 506.34 247.91
  Q 473.69 280.81 440.96 313.46
  Q 425.63 328.74 410.50 344.21"
/>
<path stroke="#999999" vector-effect="non-scaling-stroke" d="
  M 410.50 344.21
  L 400.46 339.50"
/>
<path stroke="#fafafa" vector-effect="non-scaling-stroke" d="
  M 400.46 339.50
  Q 404.40 335.09 415.50 324.00
  Q 488.31 251.25 501.25 238.25
  Q 503.10 236.40 505.63 233.09
  A 1.11 1.02 -34.9 0 0 505.83 232.19
  Q 505.07 229.31 502.81 231.56
  Q 484.86 249.47 396.90 337.70"
/>
<path stroke="#999999" vector-effect="non-scaling-stroke" d="
  M 396.90 337.70
  L 386.75 333.29"
/>
<path stroke="#fafafa" vector-effect="non-scaling-stroke" d="
  M 386.75 333.29
  Q 389.20 330.42 398.69 320.94
  Q 448.19 271.43 497.67 221.92
  Q 502.44 217.15 506.84 212.03
  Q 507.54 211.21 507.66 210.26
  Q 508.21 206.24 505.48 208.98
  Q 476.36 238.24 447.08 267.33
  Q 414.91 299.30 383.09 331.65"
/>
<path stroke="#999999" vector-effect="non-scaling-stroke" d="
  M 383.09 331.65
  L 373.25 327.46"
/>
<path stroke="#fafafa" vector-effect="non-scaling-stroke" d="
  M 373.25 327.46
  Q 373.30 326.98 373.43 326.51
  Q 373.54 326.09 373.90 325.73
  Q 462.23 237.11 486.25 213.25
  Q 498.92 200.67 504.36 194.80
  Q 504.42 194.73 505.05 194.10
  Q 507.16 191.97 504.80 190.81
  A 1.29 1.28 35.6 0 0 503.32 191.05
  Q 455.32 239.20 407.75 286.75
  Q 379.00 315.49 369.47 325.56"
/>
<path stroke="#999999" vector-effect="non-scaling-stroke" d="
  M 369.47 325.56
  L 359.75 321.46"
/>
<path stroke="#fafafa" vector-effect="non-scaling-stroke" d="
  M 359.75 321.46
  L 360.03 320.06
  A 1.72 0.73 -88.4 0 1 360.42 319.21
  Q 429.67 249.94 498.94 180.69
  Q 502.38 177.24 506.51 172.38
  Q 507.31 171.44 507.54 170.37
  Q 508.28 167.04 506.22 168.19
  Q 505.56 168.56 504.53 169.59
  Q 429.95 244.50 355.25 319.29"
/>
<path stroke="#999999" vector-effect="non-scaling-stroke" d="
  M 355.25 319.29
  L 345.75 314.96"
/>
<path stroke="#fafafa" vector-effect="non-scaling-stroke" d="
  M 345.75 314.96
  Q 345.81 313.82 346.19 313.44
  Q 379.27 280.11 487.00 172.50
  Q 499.83 159.69 504.35 154.80
  Q 504.42 154.73 505.05 154.10
  Q 507.16 151.97 504.80 150.81
  A 1.30 1.28 -53.9 0 0 503.32 151.05
  L 341.73 312.77"
/>
<path stroke="#999999" vector-effect="non-scaling-stroke" d="
  M 341.73 312.77
  L 331.71 308.00"
/>
<path stroke="#fafafa" vector-effect="non-scaling-stroke" d="
  M 331.71 308.00
  L 505.69 133.69
  A 3.30 0.47 -44.0 0 0 507.44 131.44
  L 507.42 128.35
  Q 507.42 126.96 506.41 127.96
  L 328.18 306.23"
/>
<path stroke="#999999" vector-effect="non-scaling-stroke" d="
  M 328.18 306.23
  L 319.00 301.21"
/>
<path stroke="#fafafa" vector-effect="non-scaling-stroke" d="
  M 319.00 301.21
  Q 321.35 298.29 328.69 290.94
  Q 405.43 214.06 482.25 137.25
  Q 498.32 121.19 503.87 115.31
  Q 505.52 113.56 505.53 113.55
  Q 506.85 111.82 504.80 110.81
  A 1.29 1.28 35.6 0 0 503.32 111.05
  Q 460.08 154.45 417.19 197.31
  Q 414.48 200.02 405.92 208.78
  Q 400.30 214.54 394.53 220.15
  Q 384.21 230.19 380.27 234.16
  Q 347.90 266.74 315.25 299.04"
/>
<path stroke="#999999" vector-effect="non-scaling-stroke" d="
  M 315.25 299.04
  L 307.35 294.42
  A 0.48 0.44 -55.8 0 1 307.25 293.74
  L 317.75 279.71"
/>
<path stroke="#fafafa" vector-effect="non-scaling-stroke" d="
  M 317.75 279.71
  Q 318.21 279.95 318.69 279.97
  A 1.33 0.90 -58.5 0 0 319.55 279.58
  Q 348.89 251.21 377.40 221.99
  Q 377.40 221.99 378.83 220.77
  Q 380.34 219.48 378.45 218.49
  A 2.20 2.15 36.2 0 0 375.90 218.86
  L 324.60 270.15
  A 1.38 0.94 -60.0 0 1 323.75 270.56
  Q 323.18 270.56 322.71 270.25"
/>
<path stroke="#999999" vector-effect="non-scaling-stroke" d="
  M 322.71 270.25
  Q 327.37 260.25 330.13 249.29
  Q 330.37 248.34 331.04 247.56
  L 338.50 238.96"
/>
<path stroke="#ffffff" vector-effect="non-scaling-stroke" d="
  M 338.50 238.96
  Q 340.23 239.15 341.14 238.01
  Q 342.11 236.79 342.15 236.76
  Q 355.58 224.07 368.50 211.16"
/>
<path stroke="#80d0f8" vector-effect="non-scaling-stroke" d="
  M 368.50 211.16
  Q 371.55 217.63 378.50 217.97
  Q 384.09 218.25 388.50 217.25
  Q 407.82 212.85 406.79 192.75"
/>
<path stroke="#fafafa" vector-effect="non-scaling-stroke" d="
  M 406.79 192.75
  Q 454.88 144.86 502.59 96.59
  Q 505.02 94.14 507.08 91.37
  Q 507.69 90.56 507.26 88.20
  Q 507.07 87.17 506.34 87.91
  Q 477.62 116.87 448.77 145.52
  Q 428.37 165.76 408.35 186.38
  A 0.77 0.62 -52.7 0 1 407.53 186.58
  Q 406.53 186.06 406.79 184.50"
/>
<path stroke="#80d0f8" vector-effect="non-scaling-stroke" d="
  M 406.79 184.50
  L 406.77 170.39"
/>
<path stroke="#fafafa" vector-effect="non-scaling-stroke" d="
  M 406.77 170.39
  Q 409.00 170.84 410.44 169.12
  Q 411.46 167.91 411.55 167.83
  Q 450.25 129.26 488.94 90.69
  Q 497.88 81.77 503.17 75.92
  Q 503.23 75.86 504.99 74.25
  Q 506.83 72.58 505.12 70.97
  A 1.16 1.15 44.1 0 0 503.51 70.99
  L 408.35 166.40
  A 1.17 0.78 -56.3 0 1 407.51 166.75
  Q 406.60 166.60 407.00 165.25
  Q 407.28 164.30 406.79 162.50"
/>
<path stroke="#80d0f8" vector-effect="non-scaling-stroke" d="
  M 406.79 162.50
  L 406.79 150.25"
/>
<path stroke="#fafafa" vector-effect="non-scaling-stroke" d="
  M 406.79 150.25
  Q 407.57 151.52 408.69 150.44
  Q 447.36 112.79 502.58 56.58
  Q 505.00 54.12 507.08 51.37
  Q 507.69 50.56 507.26 48.20
  Q 507.07 47.17 506.34 47.91
  Q 473.69 80.81 440.96 113.46
  Q 425.71 128.68 410.59 144.03
  Q 410.50 144.11 409.69 145.21
  Q 408.99 146.15 407.55 146.66
  Q 406.82 146.91 406.97 146.16
  Q 407.16 145.17 406.79 144.50"
/>
<path stroke="#80d0f8" vector-effect="non-scaling-stroke" d="
  M 406.79 144.50
  L 406.93 132.39"
/>
<path stroke="#fafafa" vector-effect="non-scaling-stroke" d="
  M 406.93 132.39
  Q 447.79 91.77 488.56 51.06
  Q 499.56 40.08 506.19 32.55
  Q 507.15 31.45 507.44 30.66
  Q 507.91 29.40 507.48 28.33
  A 0.73 0.72 -33.6 0 0 506.29 28.09
  L 406.58 127.89"
/>
<path stroke="#80d0f8" vector-effect="non-scaling-stroke" d="
  M 406.58 127.89
  Q 404.37 122.27 400.96 118.75"
/>
<path stroke="#fafafa" vector-effect="non-scaling-stroke" d="
  M 400.96 118.75
  Q 483.38 36.07 505.06 14.56
  Q 507.71 11.94 506.89 8.74
  A 0.36 0.35 65.3 0 0 506.34 8.53
  Q 504.51 9.87 500.94 13.44
  Q 463.02 51.38 425.08 89.30
  Q 425.04 89.33 412.40 102.18
  Q 405.33 109.37 398.00 116.29"
/>
<path stroke="#80d0f8" vector-effect="non-scaling-stroke" d="
  M 398.00 116.29
  Q 393.60 113.53 387.71 111.92"
/>
<path stroke="#fafafa" vector-effect="non-scaling-stroke" d="
  M 387.71 111.92
  Q 425.30 74.09 463.10 36.48
  Q 466.41 33.19 477.18 22.29
  Q 486.97 12.39 493.56 6.31
  Q 495.59 4.44 496.29 2.53
  A 0.34 0.33 7.2 0 0 495.94 2.09
  Q 492.03 2.34 489.69 4.69
  Q 444.35 50.20 398.90 95.61
  Q 398.83 95.67 393.22 101.51
  Q 388.66 106.26 383.50 110.40"
/>
<path stroke="#80d0f8" vector-effect="non-scaling-stroke" d="
  M 383.50 110.40
  L 381.08 98.38"
/>
<path stroke="#fafafa" vector-effect="non-scaling-stroke" d="
  M 381.08 98.38
  Q 425.57 54.14 469.89 9.73
  Q 470.35 9.28 472.57 7.24
  Q 474.41 5.54 474.94 4.44
  Q 476.17 1.86 473.56 2.31
  Q 471.75 2.63 469.69 4.69
  L 380.19 94.16"
/>
<path stroke="#80d0f8" vector-effect="non-scaling-stroke" d="
  M 380.19 94.16
  L 376.21 83.50"
/>
<path stroke="#fafafa" vector-effect="non-scaling-stroke" d="
  M 376.21 83.50
  Q 405.87 53.54 435.77 23.82
  Q 435.83 23.76 444.24 15.21
  Q 449.44 9.92 454.94 4.94
  Q 455.52 4.41 455.20 3.46
  A 0.80 0.73 -6.8 0 0 454.50 2.96
  Q 451.58 2.77 449.94 4.44
  Q 412.50 42.24 374.69 79.65"
/>
<path stroke="#80d0f8" vector-effect="non-scaling-stroke" d="
  M 374.69 79.65
  L 369.52 69.59"
/>
<path stroke="#fafafa" vector-effect="non-scaling-stroke" d="
  M 369.52 69.59
  Q 398.74 41.34 427.13 12.29
  Q 428.32 11.08 431.22 8.57
  Q 433.91 6.26 434.94 4.44
  Q 435.93 2.69 434.06 2.56
  Q 431.95 2.42 429.81 4.56
  L 367.74 66.78"
/>
<path stroke="#80d0f8" vector-effect="non-scaling-stroke" d="
  M 367.74 66.78
  L 361.50 57.79"
/>
<path stroke="#fafafa" vector-effect="non-scaling-stroke" d="
  M 361.50 57.79
  Q 383.61 36.13 389.19 30.44
  Q 401.93 17.43 415.00 4.75
  Q 415.53 4.23 415.22 3.44
  A 0.86 0.73 -6.9 0 0 414.49 2.96
  Q 411.56 2.79 409.69 4.69
  Q 384.67 30.07 359.36 55.15"
/>
<path stroke="#80d0f8" vector-effect="non-scaling-stroke" d="
  M 359.36 55.15
  L 352.46 47.25"
/>
<path stroke="#fafafa" vector-effect="non-scaling-stroke" d="
  M 352.46 47.25
  Q 368.67 30.82 384.99 14.50
  Q 386.59 12.91 390.12 9.63
  Q 394.07 5.97 394.94 4.44
  Q 395.93 2.69 394.06 2.56
  Q 392.06 2.43 390.25 4.25
  L 350.00 44.79"
/>
<path stroke="#80d0f8" vector-effect="non-scaling-stroke" d="
  M 350.00 44.79
  L 342.17 37.74"
/>
<path stroke="#fafafa" vector-effect="non-scaling-stroke" d="
  M 342.17 37.74
  Q 358.03 20.97 374.70 5.03
  Q 375.04 4.71 375.13 4.36
  Q 375.24 3.96 375.24 3.56
  A 0.59 0.56 1.7 0 0 374.69 3.01
  Q 373.30 2.91 371.97 3.25
  Q 370.83 3.54 369.74 4.65
  Q 354.63 20.10 339.25 35.29"
/>
<path stroke="#80d0f8" vector-effect="non-scaling-stroke" d="
  M 339.25 35.29
  L 330.96 29.25"
/>
<path stroke="#fafafa" vector-effect="non-scaling-stroke" d="
  M 330.96 29.25
  Q 333.57 25.86 336.60 22.86
  Q 341.56 17.96 341.64 17.87
  Q 346.54 12.79 351.66 7.92
  Q 351.69 7.89 353.33 6.58
  Q 354.53 5.62 355.19 4.19
  Q 356.25 1.87 353.25 2.75
  Q 351.63 3.23 350.40 4.40
  Q 338.74 15.52 327.75 27.29"
/>
<path stroke="#80d0f8" vector-effect="non-scaling-stroke" d="
  M 327.75 27.29
  Q 292.50 5.98 251.75 6.00
  Q 207.21 6.03 170.00 31.04"
/>
<path stroke="#ffffff" vector-effect="non-scaling-stroke" d="
  M 170.00 31.04
  Q 169.15 31.20 169.00 30.74
  A 1.02 0.58 -37.6 0 1 169.35 29.90
  L 194.71 5.15
  Q 195.03 4.84 195.21 4.33
  L 195.64 3.14
  A 0.43 0.41 -76.3 0 0 195.31 2.58
  Q 192.52 2.18 190.98 3.73
  Q 150.37 44.75 109.25 85.25
  Q 73.26 120.70 0.00 194.69"
/>
<path stroke="#fafafa" vector-effect="non-scaling-stroke" d="
  M 0.00 155.69
  L 0.54 158.46
  Q 0.64 158.98 1.04 158.59
  Q 69.29 90.32 137.42 21.92
  Q 144.25 15.06 153.94 6.19
  Q 155.03 5.19 155.17 3.57
  A 0.56 0.55 6.0 0 0 154.69 2.98
  Q 151.81 2.57 149.81 4.56
  Q 135.81 18.50 67.36 86.86
  Q 33.53 120.63 0.00 154.69"
/>
<path stroke="#fafafa" vector-effect="non-scaling-stroke" d="
  M 0.00 115.69
  L 0.54 118.46
  Q 0.64 118.98 1.05 118.58
  Q 57.38 62.31 113.59 5.91
  Q 114.38 5.12 114.76 4.47
  Q 116.31 1.79 112.44 3.11
  Q 110.66 3.71 109.36 5.02
  L 0.00 114.69"
/>
<path stroke="#fafafa" vector-effect="non-scaling-stroke" d="
  M 0.00 75.69
  L 0.54 78.46
  Q 0.64 78.98 1.05 78.58
  Q 25.42 54.18 49.73 29.74
  Q 61.54 17.87 73.54 6.19
  Q 74.36 5.39 74.75 4.64
  Q 76.32 1.62 72.28 3.25
  Q 70.55 3.95 69.27 5.23
  L 0.00 74.69"
/>
<path stroke="#fafafa" vector-effect="non-scaling-stroke" d="
  M 0.00 35.69
  Q -0.10 37.18 0.66 38.14
  A 0.48 0.44 -42.0 0 0 1.35 38.15
  Q 11.48 28.11 21.58 18.04
  Q 21.62 18.00 26.70 12.74
  Q 30.29 9.02 33.75 6.25
  Q 35.36 4.96 35.06 3.30
  A 0.63 0.61 -4.9 0 0 34.44 2.80
  Q 31.55 2.82 30.06 4.31
  Q 14.99 19.46 0.00 34.69"
/>
<path stroke="#fdfdfd" vector-effect="non-scaling-stroke" d="
  M 0.00 15.69
  Q 0.94 18.37 2.69 16.69
  Q 8.36 11.23 14.05 5.79
  Q 14.63 5.24 15.11 4.41
  Q 15.54 3.66 16.06 2.92
  Q 17.07 1.47 15.36 1.91
  Q 12.48 2.65 10.37 4.29
  Q 10.19 4.43 6.44 8.02
  Q 2.95 11.35 0.00 15.19"
/>
<path stroke="#fafafa" vector-effect="non-scaling-stroke" d="
  M 110.69 23.94
  Q 56.75 77.60 3.02 131.47
  Q 1.35 133.15 0.86 134.30
  Q 0.14 135.98 0.31 137.94
  Q 0.40 138.97 1.19 138.19
  Q 62.18 77.43 122.93 16.43
  Q 128.85 10.48 135.13 4.62
  Q 136.99 2.89 134.49 2.46
  Q 132.47 2.11 130.05 4.55
  Q 120.40 14.27 110.69 23.94"
/>
<path stroke="#fafafa" vector-effect="non-scaling-stroke" d="
  M 34.46 25.21
  Q 43.84 15.72 54.67 4.96
  Q 56.39 3.26 54.00 2.87
  Q 52.66 2.65 51.03 3.67
  Q 50.17 4.21 48.75 5.64
  Q 25.99 28.68 3.01 51.50
  Q 1.36 53.14 0.86 54.28
  Q 0.14 55.95 0.31 57.87
  Q 0.40 58.95 1.18 58.20
  Q 18.00 41.88 34.46 25.21"
/>
<path stroke="#fafafa" vector-effect="non-scaling-stroke" d="
  M 70.63 23.87
  Q 37.23 57.04 4.12 90.49
  Q 4.08 90.54 2.66 91.80
  Q 0.31 93.89 0.25 97.26
  Q 0.22 99.15 1.56 97.82
  Q 27.55 72.05 53.76 45.76
  Q 74.29 25.16 95.00 4.75
  Q 95.53 4.23 95.22 3.44
  A 0.86 0.74 -6.5 0 0 94.50 2.95
  Q 91.77 2.72 90.50 4.00
  Q 80.60 13.97 70.63 23.87"
/>
<path stroke="#fafafa" vector-effect="non-scaling-stroke" d="
  M 157.27 22.02
  Q 165.13 14.12 174.48 5.49
  Q 176.34 3.77 173.99 2.83
  Q 172.48 2.23 170.35 4.35
  Q 137.58 37.08 104.78 69.78
  Q 54.35 120.04 4.12 170.50
  Q 4.04 170.58 2.68 171.78
  Q 0.31 173.88 0.25 177.26
  Q 0.22 179.15 1.56 177.82
  Q 79.39 100.27 157.27 22.02"
/>
<path stroke="#7acbf2" vector-effect="non-scaling-stroke" d="
  M 387.71 111.92
  Q 387.02 112.02 384.50 111.75
  Q 382.70 111.55 383.50 110.40"
/>
<path stroke="#7acbf2" vector-effect="non-scaling-stroke" d="
  M 381.08 98.38
  Q 379.89 95.63 380.19 94.16"
/>
<path stroke="#80d0f8" vector-effect="non-scaling-stroke" d="
  M 170.00 31.04
  Q 150.24 45.07 138.06 63.31
  Q 123.56 85.03 120.22 111.21
  A 0.61 0.60 2.2 0 1 119.64 111.74
  Q 109.97 112.22 103.29 118.20
  Q 99.80 121.32 98.29 125.11
  Q 96.75 128.99 96.75 133.75
  Q 96.75 163.37 96.75 192.99
  Q 96.75 200.77 98.19 204.32
  Q 100.76 210.63 107.20 214.29
  Q 112.34 217.20 118.89 217.81
  A 0.69 0.68 -89.1 0 1 119.51 218.46
  Q 120.40 236.67 124.39 254.67
  Q 129.19 276.37 139.47 296.04
  Q 147.83 312.05 160.22 324.89
  Q 167.33 332.27 175.32 337.97
  Q 197.10 353.50 224.72 357.61
  A 1.35 1.34 87.4 0 1 225.84 358.64
  Q 228.56 370.16 238.86 374.64
  Q 241.99 375.99 246.87 376.11
  Q 262.70 376.49 278.53 376.13
  Q 284.72 375.99 288.25 374.52
  Q 296.32 371.16 299.50 363.12
  Q 301.00 359.36 301.19 352.17
  Q 301.43 343.19 301.00 341.00
  Q 298.47 328.12 287.58 324.20
  Q 283.58 322.76 274.75 322.75
  Q 260.75 322.73 246.75 322.66
  Q 239.47 322.62 234.94 326.69
  Q 228.17 332.75 225.92 341.14
  A 0.96 0.96 -78.1 0 1 224.84 341.85
  Q 204.87 338.57 188.47 328.21
  Q 180.35 323.08 172.97 315.65
  Q 159.75 302.36 151.75 285.75
  Q 134.95 250.88 135.19 211.19
  Q 135.31 190.60 135.26 127.25
  Q 135.25 114.53 136.57 107.34
  Q 141.22 82.15 158.39 62.39
  Q 171.81 46.96 189.06 37.56
  Q 223.57 18.77 263.51 22.15
  Q 289.67 24.36 312.79 36.68
  Q 333.77 47.87 348.06 65.94
  Q 366.64 89.42 368.38 119.00
  Q 368.50 120.95 368.50 138.99
  Q 368.50 175.16 368.50 211.16"
/>
<path stroke="#999999" vector-effect="non-scaling-stroke" d="
  M 338.50 238.96
  Q 347.84 226.18 353.09 211.43
  Q 355.92 203.46 356.83 195.82
  Q 357.78 187.81 357.19 179.68
  Q 356.91 175.77 355.50 171.25
  Q 353.77 165.72 348.31 165.22
  A 0.55 0.53 1.8 0 1 347.80 164.70
  Q 347.48 148.67 347.29 132.64
  Q 347.29 132.53 347.32 125.87
  Q 347.43 102.06 336.94 81.56
  Q 329.31 66.66 316.01 56.37
  Q 308.32 50.42 298.75 46.39
  Q 284.84 40.52 268.50 38.75
  Q 251.31 36.88 234.18 39.08
  Q 221.01 40.77 208.71 45.75
  Q 191.38 52.77 179.42 66.40
  Q 173.06 73.66 168.41 83.03
  Q 163.46 93.02 160.97 103.91
  Q 159.29 111.27 158.91 123.74
  Q 158.28 144.11 158.25 164.50
  A 0.60 0.59 -5.3 0 1 157.76 165.08
  Q 151.30 166.18 150.00 172.50
  Q 148.24 181.09 148.66 190.17
  Q 149.06 198.59 151.67 207.49
  Q 158.18 229.70 174.67 247.06
  A 4.19 4.15 16.8 0 1 175.68 248.92
  Q 181.53 273.30 198.66 293.67
  A 0.69 0.68 -34.9 0 1 198.47 294.70
  L 184.18 302.99
  A 0.39 0.38 -38.1 0 0 184.10 303.60
  Q 197.70 316.91 215.54 323.58
  A 0.64 0.62 -62.8 0 0 216.28 323.33
  Q 226.04 308.95 244.00 306.75
  Q 251.12 305.88 257.47 305.96
  Q 264.00 306.05 269.04 305.93
  Q 277.03 305.76 284.91 307.01
  Q 293.54 308.39 299.07 311.59
  Q 305.90 315.53 310.19 322.06
  Q 321.14 338.74 316.94 358.74"
/>
<path stroke="#fdfdfd" vector-effect="non-scaling-stroke" d="
  M 316.94 358.74
  Q 299.04 374.34 283.14 392.09"
/>
<path stroke="#999999" vector-effect="non-scaling-stroke" d="
  M 283.14 392.09
  Q 274.00 393.46 264.63 392.82
  Q 261.28 392.59 257.38 392.99
  Q 242.42 394.53 228.90 387.52
  Q 219.89 382.85 214.56 374.35
  A 2.67 2.62 84.5 0 0 213.30 373.29
  Q 205.85 370.28 199.73 368.33
  Q 192.04 365.88 184.75 362.52
  Q 177.52 359.19 170.76 354.68
  Q 152.71 342.64 139.05 325.25
  A 0.66 0.66 58.9 0 0 138.26 325.05
  Q 119.89 332.97 101.97 341.31
  Q 88.29 347.66 85.49 349.26
  Q 77.46 353.85 70.72 360.20
  Q 65.87 364.78 60.80 371.72
  Q 55.93 378.37 52.56 384.56
  Q 36.73 413.67 31.48 447.37
  Q 29.94 457.31 29.90 457.61
  Q 29.30 462.77 29.69 468.00"
/>
<path stroke="#7acbf2" vector-effect="non-scaling-stroke" d="
  M 352.46 47.25
  L 350.00 44.79"
/>
<path stroke="#7acbf2" vector-effect="non-scaling-stroke" d="
  M 369.52 69.59
  Q 367.83 67.56 367.74 66.78"
/>
<path stroke="#7acbf2" vector-effect="non-scaling-stroke" d="
  M 330.96 29.25
  L 327.75 27.29"
/>
<path stroke="#7acbf2" vector-effect="non-scaling-stroke" d="
  M 361.50 57.79
  L 359.36 55.15"
/>
<path stroke="#7acbf2" vector-effect="non-scaling-stroke" d="
  M 376.21 83.50
  L 374.69 79.65"
/>
<path stroke="#7acbf2" vector-effect="non-scaling-stroke" d="
  M 342.17 37.74
  L 339.25 35.29"
/>
<path stroke="#7acbf2" vector-effect="non-scaling-stroke" d="
  M 398.00 116.29
  L 400.96 118.75"
/>
<path stroke="#7acbf2" vector-effect="non-scaling-stroke" d="
  M 406.58 127.89
  L 406.93 132.39"
/>
<path stroke="#7acbf2" vector-effect="non-scaling-stroke" d="
  M 406.79 144.50
  L 406.79 150.25"
/>
<path stroke="#7acbf2" vector-effect="non-scaling-stroke" d="
  M 406.79 162.50
  L 406.77 170.39"
/>
<path stroke="#7acbf2" vector-effect="non-scaling-stroke" d="
  M 406.79 184.50
  L 406.79 192.75"
/>
<path stroke="#949494" vector-effect="non-scaling-stroke" d="
  M 322.71 270.25
  L 317.75 279.71"
/>
<path stroke="#949494" vector-effect="non-scaling-stroke" d="
  M 315.25 299.04
  L 319.00 301.21"
/>
<path stroke="#949494" vector-effect="non-scaling-stroke" d="
  M 328.18 306.23
  L 331.71 308.00"
/>
<path stroke="#949494" vector-effect="non-scaling-stroke" d="
  M 341.73 312.77
  L 345.75 314.96"
/>
<path stroke="#949494" vector-effect="non-scaling-stroke" d="
  M 355.25 319.29
  L 359.75 321.46"
/>
<path stroke="#949494" vector-effect="non-scaling-stroke" d="
  M 369.47 325.56
  L 373.25 327.46"
/>
<path stroke="#949494" vector-effect="non-scaling-stroke" d="
  M 383.09 331.65
  L 386.75 333.29"
/>
<path stroke="#949494" vector-effect="non-scaling-stroke" d="
  M 396.90 337.70
  Q 399.01 339.25 400.46 339.50"
/>
<path stroke="#949494" vector-effect="non-scaling-stroke" d="
  M 410.50 344.21
  L 413.71 345.75"
/>
<path stroke="#949494" vector-effect="non-scaling-stroke" d="
  M 423.75 351.04
  L 426.70 352.99"
/>
<path stroke="#949494" vector-effect="non-scaling-stroke" d="
  M 434.75 359.54
  L 437.28 362.08"
/>
<path stroke="#949494" vector-effect="non-scaling-stroke" d="
  M 444.04 370.00
  L 446.46 373.25"
/>
<path stroke="#949494" vector-effect="non-scaling-stroke" d="
  M 452.20 382.25
  L 453.96 385.50"
/>
<path stroke="#949494" vector-effect="non-scaling-stroke" d="
  M 459.00 395.54
  L 460.50 398.79"
/>
<path stroke="#949494" vector-effect="non-scaling-stroke" d="
  M 464.96 409.52
  L 465.96 412.75"
/>
<path stroke="#949494" vector-effect="non-scaling-stroke" d="
  M 469.84 424.57
  Q 469.77 426.17 470.71 428.50"
/>
<path stroke="#949494" vector-effect="non-scaling-stroke" d="
  M 473.29 440.25
  L 474.31 444.59"
/>
<path stroke="#949494" vector-effect="non-scaling-stroke" d="
  M 476.34 457.79
  Q 475.68 459.11 476.93 462.20"
/>
<path stroke="#979797" vector-effect="non-scaling-stroke" d="
  M 283.14 392.09
  Q 312.61 388.38 316.94 358.74"
/>
</g>
<path fill="#ffffff" d="
  M 0.00 0.00
  L 509.00 0.00
  L 509.00 468.00
  L 490.19 468.00
  Q 492.95 466.89 494.92 464.74
  Q 497.34 462.10 497.40 462.05
  Q 501.40 458.22 505.24 454.24
  Q 506.46 452.97 505.19 451.16
  A 1.27 1.26 -40.3 0 0 503.25 451.01
  L 487.65 466.98
  A 0.65 0.44 -44.1 0 0 487.49 467.73
  Q 487.64 467.90 487.94 468.00
  L 476.19 468.00
  L 476.93 462.20
  Q 488.61 451.21 504.19 435.19
  Q 506.36 432.96 503.99 431.55
  A 0.75 0.68 -47.8 0 0 503.17 431.63
  Q 499.60 434.56 494.69 439.94
  Q 490.06 445.01 476.34 457.79
  Q 474.67 450.39 474.31 444.59
  Q 490.01 430.12 504.81 414.81
  Q 507.41 412.11 504.45 410.70
  A 0.74 0.69 -54.0 0 0 503.64 410.86
  Q 482.08 432.17 475.81 438.81
  Q 474.45 440.26 473.29 440.25
  L 470.71 428.50
  Q 487.90 412.31 504.01 395.04
  Q 504.03 395.02 505.56 393.52
  Q 507.55 391.58 507.23 389.88
  Q 506.79 387.56 505.12 389.24
  L 469.84 424.57
  L 465.96 412.75
  Q 469.92 409.77 473.38 406.25
  Q 479.41 400.11 479.45 400.07
  Q 493.72 386.38 507.09 371.81
  A 1.50 1.20 -27.3 0 0 507.48 370.94
  L 507.54 369.01
  Q 507.62 366.62 505.85 368.40
  L 464.96 409.52
  L 460.50 398.79
  Q 482.04 377.93 502.91 356.41
  Q 503.65 355.64 504.29 354.80
  Q 504.40 354.64 505.45 353.44
  Q 506.91 351.76 504.81 350.79
  A 1.34 1.32 -55.0 0 0 503.31 351.06
  L 459.00 395.54
  L 453.96 385.50
  Q 476.35 363.37 498.54 341.04
  Q 502.72 336.83 506.57 332.31
  Q 507.28 331.47 507.45 330.46
  Q 508.22 325.95 505.42 328.91
  Q 504.49 329.88 504.44 329.94
  Q 478.33 356.10 452.20 382.25
  L 446.46 373.25
  Q 464.19 355.38 481.97 337.54
  Q 482.04 337.47 490.63 329.06
  Q 498.47 321.39 505.61 313.07
  A 0.94 0.86 -35.3 0 0 505.80 312.21
  Q 504.83 309.30 502.69 311.62
  Q 501.96 312.42 501.91 312.47
  Q 477.86 336.64 453.75 360.75
  Q 446.40 368.10 444.04 370.00
  L 437.28 362.08
  Q 471.89 328.16 505.75 293.50
  Q 507.98 291.21 507.62 288.76
  Q 507.35 287.03 506.11 288.27
  Q 475.13 319.13 444.56 350.06
  Q 438.42 356.28 434.75 359.54
  L 426.70 352.99
  Q 463.91 315.56 501.25 278.25
  Q 502.20 277.30 503.85 275.29
  Q 503.95 275.17 505.26 273.82
  Q 507.07 271.95 504.80 270.81
  A 1.26 1.25 35.4 0 0 503.33 271.05
  Q 478.82 295.69 454.67 319.67
  Q 439.03 335.18 423.75 351.04
  L 413.71 345.75
  Q 458.40 301.42 502.60 256.60
  Q 505.02 254.14 507.08 251.37
  Q 507.69 250.56 507.26 248.20
  Q 507.07 247.17 506.34 247.91
  Q 473.69 280.81 440.96 313.46
  Q 425.63 328.74 410.50 344.21
  L 400.46 339.50
  Q 404.40 335.09 415.50 324.00
  Q 488.31 251.25 501.25 238.25
  Q 503.10 236.40 505.63 233.09
  A 1.11 1.02 -34.9 0 0 505.83 232.19
  Q 505.07 229.31 502.81 231.56
  Q 484.86 249.47 396.90 337.70
  L 386.75 333.29
  Q 389.20 330.42 398.69 320.94
  Q 448.19 271.43 497.67 221.92
  Q 502.44 217.15 506.84 212.03
  Q 507.54 211.21 507.66 210.26
  Q 508.21 206.24 505.48 208.98
  Q 476.36 238.24 447.08 267.33
  Q 414.91 299.30 383.09 331.65
  L 373.25 327.46
  Q 373.30 326.98 373.43 326.51
  Q 373.54 326.09 373.90 325.73
  Q 462.23 237.11 486.25 213.25
  Q 498.92 200.67 504.36 194.80
  Q 504.42 194.73 505.05 194.10
  Q 507.16 191.97 504.80 190.81
  A 1.29 1.28 35.6 0 0 503.32 191.05
  Q 455.32 239.20 407.75 286.75
  Q 379.00 315.49 369.47 325.56
  L 359.75 321.46
  L 360.03 320.06
  A 1.72 0.73 -88.4 0 1 360.42 319.21
  Q 429.67 249.94 498.94 180.69
  Q 502.38 177.24 506.51 172.38
  Q 507.31 171.44 507.54 170.37
  Q 508.28 167.04 506.22 168.19
  Q 505.56 168.56 504.53 169.59
  Q 429.95 244.50 355.25 319.29
  L 345.75 314.96
  Q 345.81 313.82 346.19 313.44
  Q 379.27 280.11 487.00 172.50
  Q 499.83 159.69 504.35 154.80
  Q 504.42 154.73 505.05 154.10
  Q 507.16 151.97 504.80 150.81
  A 1.30 1.28 -53.9 0 0 503.32 151.05
  L 341.73 312.77
  L 331.71 308.00
  L 505.69 133.69
  A 3.30 0.47 -44.0 0 0 507.44 131.44
  L 507.42 128.35
  Q 507.42 126.96 506.41 127.96
  L 328.18 306.23
  L 319.00 301.21
  Q 321.35 298.29 328.69 290.94
  Q 405.43 214.06 482.25 137.25
  Q 498.32 121.19 503.87 115.31
  Q 505.52 113.56 505.53 113.55
  Q 506.85 111.82 504.80 110.81
  A 1.29 1.28 35.6 0 0 503.32 111.05
  Q 460.08 154.45 417.19 197.31
  Q 414.48 200.02 405.92 208.78
  Q 400.30 214.54 394.53 220.15
  Q 384.21 230.19 380.27 234.16
  Q 347.90 266.74 315.25 299.04
  L 307.35 294.42
  A 0.48 0.44 -55.8 0 1 307.25 293.74
  L 317.75 279.71
  Q 318.21 279.95 318.69 279.97
  A 1.33 0.90 -58.5 0 0 319.55 279.58
  Q 348.89 251.21 377.40 221.99
  Q 377.40 221.99 378.83 220.77
  Q 380.34 219.48 378.45 218.49
  A 2.20 2.15 36.2 0 0 375.90 218.86
  L 324.60 270.15
  A 1.38 0.94 -60.0 0 1 323.75 270.56
  Q 323.18 270.56 322.71 270.25
  Q 327.37 260.25 330.13 249.29
  Q 330.37 248.34 331.04 247.56
  L 338.50 238.96
  Q 340.23 239.15 341.14 238.01
  Q 342.11 236.79 342.15 236.76
  Q 355.58 224.07 368.50 211.16
  Q 371.55 217.63 378.50 217.97
  Q 384.09 218.25 388.50 217.25
  Q 407.82 212.85 406.79 192.75
  Q 454.88 144.86 502.59 96.59
  Q 505.02 94.14 507.08 91.37
  Q 507.69 90.56 507.26 88.20
  Q 507.07 87.17 506.34 87.91
  Q 477.62 116.87 448.77 145.52
  Q 428.37 165.76 408.35 186.38
  A 0.77 0.62 -52.7 0 1 407.53 186.58
  Q 406.53 186.06 406.79 184.50
  L 406.77 170.39
  Q 409.00 170.84 410.44 169.12
  Q 411.46 167.91 411.55 167.83
  Q 450.25 129.26 488.94 90.69
  Q 497.88 81.77 503.17 75.92
  Q 503.23 75.86 504.99 74.25
  Q 506.83 72.58 505.12 70.97
  A 1.16 1.15 44.1 0 0 503.51 70.99
  L 408.35 166.40
  A 1.17 0.78 -56.3 0 1 407.51 166.75
  Q 406.60 166.60 407.00 165.25
  Q 407.28 164.30 406.79 162.50
  L 406.79 150.25
  Q 407.57 151.52 408.69 150.44
  Q 447.36 112.79 502.58 56.58
  Q 505.00 54.12 507.08 51.37
  Q 507.69 50.56 507.26 48.20
  Q 507.07 47.17 506.34 47.91
  Q 473.69 80.81 440.96 113.46
  Q 425.71 128.68 410.59 144.03
  Q 410.50 144.11 409.69 145.21
  Q 408.99 146.15 407.55 146.66
  Q 406.82 146.91 406.97 146.16
  Q 407.16 145.17 406.79 144.50
  L 406.93 132.39
  Q 447.79 91.77 488.56 51.06
  Q 499.56 40.08 506.19 32.55
  Q 507.15 31.45 507.44 30.66
  Q 507.91 29.40 507.48 28.33
  A 0.73 0.72 -33.6 0 0 506.29 28.09
  L 406.58 127.89
  Q 404.37 122.27 400.96 118.75
  Q 483.38 36.07 505.06 14.56
  Q 507.71 11.94 506.89 8.74
  A 0.36 0.35 65.3 0 0 506.34 8.53
  Q 504.51 9.87 500.94 13.44
  Q 463.02 51.38 425.08 89.30
  Q 425.04 89.33 412.40 102.18
  Q 405.33 109.37 398.00 116.29
  Q 393.60 113.53 387.71 111.92
  Q 425.30 74.09 463.10 36.48
  Q 466.41 33.19 477.18 22.29
  Q 486.97 12.39 493.56 6.31
  Q 495.59 4.44 496.29 2.53
  A 0.34 0.33 7.2 0 0 495.94 2.09
  Q 492.03 2.34 489.69 4.69
  Q 444.35 50.20 398.90 95.61
  Q 398.83 95.67 393.22 101.51
  Q 388.66 106.26 383.50 110.40
  L 381.08 98.38
  Q 425.57 54.14 469.89 9.73
  Q 470.35 9.28 472.57 7.24
  Q 474.41 5.54 474.94 4.44
  Q 476.17 1.86 473.56 2.31
  Q 471.75 2.63 469.69 4.69
  L 380.19 94.16
  L 376.21 83.50
  Q 405.87 53.54 435.77 23.82
  Q 435.83 23.76 444.24 15.21
  Q 449.44 9.92 454.94 4.94
  Q 455.52 4.41 455.20 3.46
  A 0.80 0.73 -6.8 0 0 454.50 2.96
  Q 451.58 2.77 449.94 4.44
  Q 412.50 42.24 374.69 79.65
  L 369.52 69.59
  Q 398.74 41.34 427.13 12.29
  Q 428.32 11.08 431.22 8.57
  Q 433.91 6.26 434.94 4.44
  Q 435.93 2.69 434.06 2.56
  Q 431.95 2.42 429.81 4.56
  L 367.74 66.78
  L 361.50 57.79
  Q 383.61 36.13 389.19 30.44
  Q 401.93 17.43 415.00 4.75
  Q 415.53 4.23 415.22 3.44
  A 0.86 0.73 -6.9 0 0 414.49 2.96
  Q 411.56 2.79 409.69 4.69
  Q 384.67 30.07 359.36 55.15
  L 352.46 47.25
  Q 368.67 30.82 384.99 14.50
  Q 386.59 12.91 390.12 9.63
  Q 394.07 5.97 394.94 4.44
  Q 395.93 2.69 394.06 2.56
  Q 392.06 2.43 390.25 4.25
  L 350.00 44.79
  L 342.17 37.74
  Q 358.03 20.97 374.70 5.03
  Q 375.04 4.71 375.13 4.36
  Q 375.24 3.96 375.24 3.56
  A 0.59 0.56 1.7 0 0 374.69 3.01
  Q 373.30 2.91 371.97 3.25
  Q 370.83 3.54 369.74 4.65
  Q 354.63 20.10 339.25 35.29
  L 330.96 29.25
  Q 333.57 25.86 336.60 22.86
  Q 341.56 17.96 341.64 17.87
  Q 346.54 12.79 351.66 7.92
  Q 351.69 7.89 353.33 6.58
  Q 354.53 5.62 355.19 4.19
  Q 356.25 1.87 353.25 2.75
  Q 351.63 3.23 350.40 4.40
  Q 338.74 15.52 327.75 27.29
  Q 292.50 5.98 251.75 6.00
  Q 207.21 6.03 170.00 31.04
  Q 169.15 31.20 169.00 30.74
  A 1.02 0.58 -37.6 0 1 169.35 29.90
  L 194.71 5.15
  Q 195.03 4.84 195.21 4.33
  L 195.64 3.14
  A 0.43 0.41 -76.3 0 0 195.31 2.58
  Q 192.52 2.18 190.98 3.73
  Q 150.37 44.75 109.25 85.25
  Q 73.26 120.70 0.00 194.69
  L 0.00 155.69
  L 0.54 158.46
  Q 0.64 158.98 1.04 158.59
  Q 69.29 90.32 137.42 21.92
  Q 144.25 15.06 153.94 6.19
  Q 155.03 5.19 155.17 3.57
  A 0.56 0.55 6.0 0 0 154.69 2.98
  Q 151.81 2.57 149.81 4.56
  Q 135.81 18.50 67.36 86.86
  Q 33.53 120.63 0.00 154.69
  L 0.00 115.69
  L 0.54 118.46
  Q 0.64 118.98 1.05 118.58
  Q 57.38 62.31 113.59 5.91
  Q 114.38 5.12 114.76 4.47
  Q 116.31 1.79 112.44 3.11
  Q 110.66 3.71 109.36 5.02
  L 0.00 114.69
  L 0.00 75.69
  L 0.54 78.46
  Q 0.64 78.98 1.05 78.58
  Q 25.42 54.18 49.73 29.74
  Q 61.54 17.87 73.54 6.19
  Q 74.36 5.39 74.75 4.64
  Q 76.32 1.62 72.28 3.25
  Q 70.55 3.95 69.27 5.23
  L 0.00 74.69
  L 0.00 35.69
  Q -0.10 37.18 0.66 38.14
  A 0.48 0.44 -42.0 0 0 1.35 38.15
  Q 11.48 28.11 21.58 18.04
  Q 21.62 18.00 26.70 12.74
  Q 30.29 9.02 33.75 6.25
  Q 35.36 4.96 35.06 3.30
  A 0.63 0.61 -4.9 0 0 34.44 2.80
  Q 31.55 2.82 30.06 4.31
  Q 14.99 19.46 0.00 34.69
  L 0.00 15.69
  Q 0.94 18.37 2.69 16.69
  Q 8.36 11.23 14.05 5.79
  Q 14.63 5.24 15.11 4.41
  Q 15.54 3.66 16.06 2.92
  Q 17.07 1.47 15.36 1.91
  Q 12.48 2.65 10.37 4.29
  Q 10.19 4.43 6.44 8.02
  Q 2.95 11.35 0.00 15.19
  L 0.00 0.00
  Z
  M 110.69 23.94
  Q 56.75 77.60 3.02 131.47
  Q 1.35 133.15 0.86 134.30
  Q 0.14 135.98 0.31 137.94
  Q 0.40 138.97 1.19 138.19
  Q 62.18 77.43 122.93 16.43
  Q 128.85 10.48 135.13 4.62
  Q 136.99 2.89 134.49 2.46
  Q 132.47 2.11 130.05 4.55
  Q 120.40 14.27 110.69 23.94
  Z
  M 34.46 25.21
  Q 43.84 15.72 54.67 4.96
  Q 56.39 3.26 54.00 2.87
  Q 52.66 2.65 51.03 3.67
  Q 50.17 4.21 48.75 5.64
  Q 25.99 28.68 3.01 51.50
  Q 1.36 53.14 0.86 54.28
  Q 0.14 55.95 0.31 57.87
  Q 0.40 58.95 1.18 58.20
  Q 18.00 41.88 34.46 25.21
  Z
  M 70.63 23.87
  Q 37.23 57.04 4.12 90.49
  Q 4.08 90.54 2.66 91.80
  Q 0.31 93.89 0.25 97.26
  Q 0.22 99.15 1.56 97.82
  Q 27.55 72.05 53.76 45.76
  Q 74.29 25.16 95.00 4.75
  Q 95.53 4.23 95.22 3.44
  A 0.86 0.74 -6.5 0 0 94.50 2.95
  Q 91.77 2.72 90.50 4.00
  Q 80.60 13.97 70.63 23.87
  Z
  M 157.27 22.02
  Q 165.13 14.12 174.48 5.49
  Q 176.34 3.77 173.99 2.83
  Q 172.48 2.23 170.35 4.35
  Q 137.58 37.08 104.78 69.78
  Q 54.35 120.04 4.12 170.50
  Q 4.04 170.58 2.68 171.78
  Q 0.31 173.88 0.25 177.26
  Q 0.22 179.15 1.56 177.82
  Q 79.39 100.27 157.27 22.02
  Z"
/>
<path fill="#fafafa" d="
  M 0.00 15.69
  L 0.00 15.19
  Q 2.95 11.35 6.44 8.02
  Q 10.19 4.43 10.37 4.29
  Q 12.48 2.65 15.36 1.91
  Q 17.07 1.47 16.06 2.92
  Q 15.54 3.66 15.11 4.41
  Q 14.63 5.24 14.05 5.79
  Q 8.36 11.23 2.69 16.69
  Q 0.94 18.37 0.00 15.69
  Z"
/>
<path fill="#f4f4f4" d="
  M 387.71 111.92
  Q 387.02 112.02 384.50 111.75
  Q 382.70 111.55 383.50 110.40
  Q 388.66 106.26 393.22 101.51
  Q 398.83 95.67 398.90 95.61
  Q 444.35 50.20 489.69 4.69
  Q 492.03 2.34 495.94 2.09
  A 0.34 0.33 7.2 0 1 496.29 2.53
  Q 495.59 4.44 493.56 6.31
  Q 486.97 12.39 477.18 22.29
  Q 466.41 33.19 463.10 36.48
  Q 425.30 74.09 387.71 111.92
  Z"
/>
<path fill="#f4f4f4" d="
  M 381.08 98.38
  Q 379.89 95.63 380.19 94.16
  L 469.69 4.69
  Q 471.75 2.63 473.56 2.31
  Q 476.17 1.86 474.94 4.44
  Q 474.41 5.54 472.57 7.24
  Q 470.35 9.28 469.89 9.73
  Q 425.57 54.14 381.08 98.38
  Z"
/>
<path fill="#f4f4f4" d="
  M 0.00 75.69
  L 0.00 74.69
  L 69.27 5.23
  Q 70.55 3.95 72.28 3.25
  Q 76.32 1.62 74.75 4.64
  Q 74.36 5.39 73.54 6.19
  Q 61.54 17.87 49.73 29.74
  Q 25.42 54.18 1.05 78.58
  Q 0.64 78.98 0.54 78.46
  L 0.00 75.69
  Z"
/>
<path fill="#f4f4f4" d="
  M 0.00 115.69
  L 0.00 114.69
  L 109.36 5.02
  Q 110.66 3.71 112.44 3.11
  Q 116.31 1.79 114.76 4.47
  Q 114.38 5.12 113.59 5.91
  Q 57.38 62.31 1.05 118.58
  Q 0.64 118.98 0.54 118.46
  L 0.00 115.69
  Z"
/>
<path fill="#f4f4f4" d="
  M 110.69 23.94
  Q 120.40 14.27 130.05 4.55
  Q 132.47 2.11 134.49 2.46
  Q 136.99 2.89 135.13 4.62
  Q 128.85 10.48 122.93 16.43
  Q 62.18 77.43 1.19 138.19
  Q 0.40 138.97 0.31 137.94
  Q 0.14 135.98 0.86 134.30
  Q 1.35 133.15 3.02 131.47
  Q 56.75 77.60 110.69 23.94
  Z"
/>
<path fill="#ffffff" d="
  M 170.00 31.04
  Q 150.24 45.07 138.06 63.31
  Q 123.56 85.03 120.22 111.21
  A 0.61 0.60 2.2 0 1 119.64 111.74
  Q 109.97 112.22 103.29 118.20
  Q 99.80 121.32 98.29 125.11
  Q 96.75 128.99 96.75 133.75
  Q 96.75 163.37 96.75 192.99
  Q 96.75 200.77 98.19 204.32
  Q 100.76 210.63 107.20 214.29
  Q 112.34 217.20 118.89 217.81
  A 0.69 0.68 -89.1 0 1 119.51 218.46
  Q 120.40 236.67 124.39 254.67
  Q 129.19 276.37 139.47 296.04
  Q 147.83 312.05 160.22 324.89
  Q 167.33 332.27 175.32 337.97
  Q 197.10 353.50 224.72 357.61
  A 1.35 1.34 87.4 0 1 225.84 358.64
  Q 228.56 370.16 238.86 374.64
  Q 241.99 375.99 246.87 376.11
  Q 262.70 376.49 278.53 376.13
  Q 284.72 375.99 288.25 374.52
  Q 296.32 371.16 299.50 363.12
  Q 301.00 359.36 301.19 352.17
  Q 301.43 343.19 301.00 341.00
  Q 298.47 328.12 287.58 324.20
  Q 283.58 322.76 274.75 322.75
  Q 260.75 322.73 246.75 322.66
  Q 239.47 322.62 234.94 326.69
  Q 228.17 332.75 225.92 341.14
  A 0.96 0.96 -78.1 0 1 224.84 341.85
  Q 204.87 338.57 188.47 328.21
  Q 180.35 323.08 172.97 315.65
  Q 159.75 302.36 151.75 285.75
  Q 134.95 250.88 135.19 211.19
  Q 135.31 190.60 135.26 127.25
  Q 135.25 114.53 136.57 107.34
  Q 141.22 82.15 158.39 62.39
  Q 171.81 46.96 189.06 37.56
  Q 223.57 18.77 263.51 22.15
  Q 289.67 24.36 312.79 36.68
  Q 333.77 47.87 348.06 65.94
  Q 366.64 89.42 368.38 119.00
  Q 368.50 120.95 368.50 138.99
  Q 368.50 175.16 368.50 211.16
  Q 355.58 224.07 342.15 236.76
  Q 342.11 236.79 341.14 238.01
  Q 340.23 239.15 338.50 238.96
  Q 347.84 226.18 353.09 211.43
  Q 355.92 203.46 356.83 195.82
  Q 357.78 187.81 357.19 179.68
  Q 356.91 175.77 355.50 171.25
  Q 353.77 165.72 348.31 165.22
  A 0.55 0.53 1.8 0 1 347.80 164.70
  Q 347.48 148.67 347.29 132.64
  Q 347.29 132.53 347.32 125.87
  Q 347.43 102.06 336.94 81.56
  Q 329.31 66.66 316.01 56.37
  Q 308.32 50.42 298.75 46.39
  Q 284.84 40.52 268.50 38.75
  Q 251.31 36.88 234.18 39.08
  Q 221.01 40.77 208.71 45.75
  Q 191.38 52.77 179.42 66.40
  Q 173.06 73.66 168.41 83.03
  Q 163.46 93.02 160.97 103.91
  Q 159.29 111.27 158.91 123.74
  Q 158.28 144.11 158.25 164.50
  A 0.60 0.59 -5.3 0 1 157.76 165.08
  Q 151.30 166.18 150.00 172.50
  Q 148.24 181.09 148.66 190.17
  Q 149.06 198.59 151.67 207.49
  Q 158.18 229.70 174.67 247.06
  A 4.19 4.15 16.8 0 1 175.68 248.92
  Q 181.53 273.30 198.66 293.67
  A 0.69 0.68 -34.9 0 1 198.47 294.70
  L 184.18 302.99
  A 0.39 0.38 -38.1 0 0 184.10 303.60
  Q 197.70 316.91 215.54 323.58
  A 0.64 0.62 -62.8 0 0 216.28 323.33
  Q 226.04 308.95 244.00 306.75
  Q 251.12 305.88 257.47 305.96
  Q 264.00 306.05 269.04 305.93
  Q 277.03 305.76 284.91 307.01
  Q 293.54 308.39 299.07 311.59
  Q 305.90 315.53 310.19 322.06
  Q 321.14 338.74 316.94 358.74
  Q 299.04 374.34 283.14 392.09
  Q 274.00 393.46 264.63 392.82
  Q 261.28 392.59 257.38 392.99
  Q 242.42 394.53 228.90 387.52
  Q 219.89 382.85 214.56 374.35
  A 2.67 2.62 84.5 0 0 213.30 373.29
  Q 205.85 370.28 199.73 368.33
  Q 192.04 365.88 184.75 362.52
  Q 177.52 359.19 170.76 354.68
  Q 152.71 342.64 139.05 325.25
  A 0.66 0.66 58.9 0 0 138.26 325.05
  Q 119.89 332.97 101.97 341.31
  Q 88.29 347.66 85.49 349.26
  Q 77.46 353.85 70.72 360.20
  Q 65.87 364.78 60.80 371.72
  Q 55.93 378.37 52.56 384.56
  Q 36.73 413.67 31.48 447.37
  Q 29.94 457.31 29.90 457.61
  Q 29.30 462.77 29.69 468.00
  L 0.00 468.00
  L 0.00 194.69
  Q 73.26 120.70 109.25 85.25
  Q 150.37 44.75 190.98 3.73
  Q 192.52 2.18 195.31 2.58
  A 0.43 0.41 -76.3 0 1 195.64 3.14
  L 195.21 4.33
  Q 195.03 4.84 194.71 5.15
  L 169.35 29.90
  A 1.02 0.58 -37.6 0 0 169.00 30.74
  Q 169.15 31.20 170.00 31.04
  Z"
/>
<path fill="#f4f4f4" d="
  M 352.46 47.25
  L 350.00 44.79
  L 390.25 4.25
  Q 392.06 2.43 394.06 2.56
  Q 395.93 2.69 394.94 4.44
  Q 394.07 5.97 390.12 9.63
  Q 386.59 12.91 384.99 14.50
  Q 368.67 30.82 352.46 47.25
  Z"
/>
<path fill="#f4f4f4" d="
  M 369.52 69.59
  Q 367.83 67.56 367.74 66.78
  L 429.81 4.56
  Q 431.95 2.42 434.06 2.56
  Q 435.93 2.69 434.94 4.44
  Q 433.91 6.26 431.22 8.57
  Q 428.32 11.08 427.13 12.29
  Q 398.74 41.34 369.52 69.59
  Z"
/>
<path fill="#f4f4f4" d="
  M 0.00 35.69
  L 0.00 34.69
  Q 14.99 19.46 30.06 4.31
  Q 31.55 2.82 34.44 2.80
  A 0.63 0.61 -4.9 0 1 35.06 3.30
  Q 35.36 4.96 33.75 6.25
  Q 30.29 9.02 26.70 12.74
  Q 21.62 18.00 21.58 18.04
  Q 11.48 28.11 1.35 38.15
  A 0.48 0.44 -42.0 0 1 0.66 38.14
  Q -0.10 37.18 0.00 35.69
  Z"
/>
<path fill="#f4f4f4" d="
  M 34.46 25.21
  Q 18.00 41.88 1.18 58.20
  Q 0.40 58.95 0.31 57.87
  Q 0.14 55.95 0.86 54.28
  Q 1.36 53.14 3.01 51.50
  Q 25.99 28.68 48.75 5.64
  Q 50.17 4.21 51.03 3.67
  Q 52.66 2.65 54.00 2.87
  Q 56.39 3.26 54.67 4.96
  Q 43.84 15.72 34.46 25.21
  Z"
/>
<path fill="#f4f4f4" d="
  M 70.63 23.87
  Q 80.60 13.97 90.50 4.00
  Q 91.77 2.72 94.50 2.95
  A 0.86 0.74 -6.5 0 1 95.22 3.44
  Q 95.53 4.23 95.00 4.75
  Q 74.29 25.16 53.76 45.76
  Q 27.55 72.05 1.56 97.82
  Q 0.22 99.15 0.25 97.26
  Q 0.31 93.89 2.66 91.80
  Q 4.08 90.54 4.12 90.49
  Q 37.23 57.04 70.63 23.87
  Z"
/>
<path fill="#f4f4f4" d="
  M 0.00 155.69
  L 0.00 154.69
  Q 33.53 120.63 67.36 86.86
  Q 135.81 18.50 149.81 4.56
  Q 151.81 2.57 154.69 2.98
  A 0.56 0.55 6.0 0 1 155.17 3.57
  Q 155.03 5.19 153.94 6.19
  Q 144.25 15.06 137.42 21.92
  Q 69.29 90.32 1.04 158.59
  Q 0.64 158.98 0.54 158.46
  L 0.00 155.69
  Z"
/>
<path fill="#f4f4f4" d="
  M 157.27 22.02
  Q 79.39 100.27 1.56 177.82
  Q 0.22 179.15 0.25 177.26
  Q 0.31 173.88 2.68 171.78
  Q 4.04 170.58 4.12 170.50
  Q 54.35 120.04 104.78 69.78
  Q 137.58 37.08 170.35 4.35
  Q 172.48 2.23 173.99 2.83
  Q 176.34 3.77 174.48 5.49
  Q 165.13 14.12 157.27 22.02
  Z"
/>
<path fill="#f4f4f4" d="
  M 330.96 29.25
  L 327.75 27.29
  Q 338.74 15.52 350.40 4.40
  Q 351.63 3.23 353.25 2.75
  Q 356.25 1.87 355.19 4.19
  Q 354.53 5.62 353.33 6.58
  Q 351.69 7.89 351.66 7.92
  Q 346.54 12.79 341.64 17.87
  Q 341.56 17.96 336.60 22.86
  Q 333.57 25.86 330.96 29.25
  Z"
/>
<path fill="#f4f4f4" d="
  M 361.50 57.79
  L 359.36 55.15
  Q 384.67 30.07 409.69 4.69
  Q 411.56 2.79 414.49 2.96
  A 0.86 0.73 -6.9 0 1 415.22 3.44
  Q 415.53 4.23 415.00 4.75
  Q 401.93 17.43 389.19 30.44
  Q 383.61 36.13 361.50 57.79
  Z"
/>
<path fill="#f4f4f4" d="
  M 376.21 83.50
  L 374.69 79.65
  Q 412.50 42.24 449.94 4.44
  Q 451.58 2.77 454.50 2.96
  A 0.80 0.73 -6.8 0 1 455.20 3.46
  Q 455.52 4.41 454.94 4.94
  Q 449.44 9.92 444.24 15.21
  Q 435.83 23.76 435.77 23.82
  Q 405.87 53.54 376.21 83.50
  Z"
/>
<path fill="#f4f4f4" d="
  M 342.17 37.74
  L 339.25 35.29
  Q 354.63 20.10 369.74 4.65
  Q 370.83 3.54 371.97 3.25
  Q 373.30 2.91 374.69 3.01
  A 0.59 0.56 1.7 0 1 375.24 3.56
  Q 375.24 3.96 375.13 4.36
  Q 375.04 4.71 374.70 5.03
  Q 358.03 20.97 342.17 37.74
  Z"
/>
<path fill="#00a1f0" d="
  M 327.75 27.29
  L 330.96 29.25
  L 339.25 35.29
  L 342.17 37.74
  L 350.00 44.79
  L 352.46 47.25
  L 359.36 55.15
  L 361.50 57.79
  L 367.74 66.78
  Q 367.83 67.56 369.52 69.59
  L 374.69 79.65
  L 376.21 83.50
  L 380.19 94.16
  Q 379.89 95.63 381.08 98.38
  L 383.50 110.40
  Q 382.70 111.55 384.50 111.75
  Q 387.02 112.02 387.71 111.92
  Q 393.60 113.53 398.00 116.29
  L 400.96 118.75
  Q 404.37 122.27 406.58 127.89
  L 406.93 132.39
  L 406.79 144.50
  L 406.79 150.25
  L 406.79 162.50
  L 406.77 170.39
  L 406.79 184.50
  L 406.79 192.75
  Q 407.82 212.85 388.50 217.25
  Q 384.09 218.25 378.50 217.97
  Q 371.55 217.63 368.50 211.16
  Q 368.50 175.16 368.50 138.99
  Q 368.50 120.95 368.38 119.00
  Q 366.64 89.42 348.06 65.94
  Q 333.77 47.87 312.79 36.68
  Q 289.67 24.36 263.51 22.15
  Q 223.57 18.77 189.06 37.56
  Q 171.81 46.96 158.39 62.39
  Q 141.22 82.15 136.57 107.34
  Q 135.25 114.53 135.26 127.25
  Q 135.31 190.60 135.19 211.19
  Q 134.95 250.88 151.75 285.75
  Q 159.75 302.36 172.97 315.65
  Q 180.35 323.08 188.47 328.21
  Q 204.87 338.57 224.84 341.85
  A 0.96 0.96 -78.1 0 0 225.92 341.14
  Q 228.17 332.75 234.94 326.69
  Q 239.47 322.62 246.75 322.66
  Q 260.75 322.73 274.75 322.75
  Q 283.58 322.76 287.58 324.20
  Q 298.47 328.12 301.00 341.00
  Q 301.43 343.19 301.19 352.17
  Q 301.00 359.36 299.50 363.12
  Q 296.32 371.16 288.25 374.52
  Q 284.72 375.99 278.53 376.13
  Q 262.70 376.49 246.87 376.11
  Q 241.99 375.99 238.86 374.64
  Q 228.56 370.16 225.84 358.64
  A 1.35 1.34 87.4 0 0 224.72 357.61
  Q 197.10 353.50 175.32 337.97
  Q 167.33 332.27 160.22 324.89
  Q 147.83 312.05 139.47 296.04
  Q 129.19 276.37 124.39 254.67
  Q 120.40 236.67 119.51 218.46
  A 0.69 0.68 -89.1 0 0 118.89 217.81
  Q 112.34 217.20 107.20 214.29
  Q 100.76 210.63 98.19 204.32
  Q 96.75 200.77 96.75 192.99
  Q 96.75 163.37 96.75 133.75
  Q 96.75 128.99 98.29 125.11
  Q 99.80 121.32 103.29 118.20
  Q 109.97 112.22 119.64 111.74
  A 0.61 0.60 2.2 0 0 120.22 111.21
  Q 123.56 85.03 138.06 63.31
  Q 150.24 45.07 170.00 31.04
  Q 207.21 6.03 251.75 6.00
  Q 292.50 5.98 327.75 27.29
  Z"
/>
<path fill="#f4f4f4" d="
  M 400.96 118.75
  L 398.00 116.29
  Q 405.33 109.37 412.40 102.18
  Q 425.04 89.33 425.08 89.30
  Q 463.02 51.38 500.94 13.44
  Q 504.51 9.87 506.34 8.53
  A 0.36 0.35 65.3 0 1 506.89 8.74
  Q 507.71 11.94 505.06 14.56
  Q 483.38 36.07 400.96 118.75
  Z"
/>
<path fill="#f4f4f4" d="
  M 406.93 132.39
  L 406.58 127.89
  L 506.29 28.09
  A 0.73 0.72 -33.6 0 1 507.48 28.33
  Q 507.91 29.40 507.44 30.66
  Q 507.15 31.45 506.19 32.55
  Q 499.56 40.08 488.56 51.06
  Q 447.79 91.77 406.93 132.39
  Z"
/>
<path fill="#333333" d="
  M 338.50 238.96
  L 331.04 247.56
  Q 330.37 248.34 330.13 249.29
  Q 327.37 260.25 322.71 270.25
  L 317.75 279.71
  L 307.25 293.74
  A 0.48 0.44 -55.8 0 0 307.35 294.42
  L 315.25 299.04
  L 319.00 301.21
  L 328.18 306.23
  L 331.71 308.00
  L 341.73 312.77
  L 345.75 314.96
  L 355.25 319.29
  L 359.75 321.46
  L 369.47 325.56
  L 373.25 327.46
  L 383.09 331.65
  L 386.75 333.29
  L 396.90 337.70
  Q 399.01 339.25 400.46 339.50
  L 410.50 344.21
  L 413.71 345.75
  L 423.75 351.04
  L 426.70 352.99
  L 434.75 359.54
  L 437.28 362.08
  L 444.04 370.00
  L 446.46 373.25
  L 452.20 382.25
  L 453.96 385.50
  L 459.00 395.54
  L 460.50 398.79
  L 464.96 409.52
  L 465.96 412.75
  L 469.84 424.57
  Q 469.77 426.17 470.71 428.50
  L 473.29 440.25
  L 474.31 444.59
  Q 474.67 450.39 476.34 457.79
  Q 475.68 459.11 476.93 462.20
  L 476.19 468.00
  L 29.69 468.00
  Q 29.30 462.77 29.90 457.61
  Q 29.94 457.31 31.48 447.37
  Q 36.73 413.67 52.56 384.56
  Q 55.93 378.37 60.80 371.72
  Q 65.87 364.78 70.72 360.20
  Q 77.46 353.85 85.49 349.26
  Q 88.29 347.66 101.97 341.31
  Q 119.89 332.97 138.26 325.05
  A 0.66 0.66 58.9 0 1 139.05 325.25
  Q 152.71 342.64 170.76 354.68
  Q 177.52 359.19 184.75 362.52
  Q 192.04 365.88 199.73 368.33
  Q 205.85 370.28 213.30 373.29
  A 2.67 2.62 84.5 0 1 214.56 374.35
  Q 219.89 382.85 228.90 387.52
  Q 242.42 394.53 257.38 392.99
  Q 261.28 392.59 264.63 392.82
  Q 274.00 393.46 283.14 392.09
  Q 312.61 388.38 316.94 358.74
  Q 321.14 338.74 310.19 322.06
  Q 305.90 315.53 299.07 311.59
  Q 293.54 308.39 284.91 307.01
  Q 277.03 305.76 269.04 305.93
  Q 264.00 306.05 257.47 305.96
  Q 251.12 305.88 244.00 306.75
  Q 226.04 308.95 216.28 323.33
  A 0.64 0.62 -62.8 0 1 215.54 323.58
  Q 197.70 316.91 184.10 303.60
  A 0.39 0.38 -38.1 0 1 184.18 302.99
  L 198.47 294.70
  A 0.69 0.68 -34.9 0 0 198.66 293.67
  Q 181.53 273.30 175.68 248.92
  A 4.19 4.15 16.8 0 0 174.67 247.06
  Q 158.18 229.70 151.67 207.49
  Q 149.06 198.59 148.66 190.17
  Q 148.24 181.09 150.00 172.50
  Q 151.30 166.18 157.76 165.08
  A 0.60 0.59 -5.3 0 0 158.25 164.50
  Q 158.28 144.11 158.91 123.74
  Q 159.29 111.27 160.97 103.91
  Q 163.46 93.02 168.41 83.03
  Q 173.06 73.66 179.42 66.40
  Q 191.38 52.77 208.71 45.75
  Q 221.01 40.77 234.18 39.08
  Q 251.31 36.88 268.50 38.75
  Q 284.84 40.52 298.75 46.39
  Q 308.32 50.42 316.01 56.37
  Q 329.31 66.66 336.94 81.56
  Q 347.43 102.06 347.32 125.87
  Q 347.29 132.53 347.29 132.64
  Q 347.48 148.67 347.80 164.70
  A 0.55 0.53 1.8 0 0 348.31 165.22
  Q 353.77 165.72 355.50 171.25
  Q 356.91 175.77 357.19 179.68
  Q 357.78 187.81 356.83 195.82
  Q 355.92 203.46 353.09 211.43
  Q 347.84 226.18 338.50 238.96
  Z"
/>
<path fill="#f4f4f4" d="
  M 406.79 150.25
  L 406.79 144.50
  Q 407.16 145.17 406.97 146.16
  Q 406.82 146.91 407.55 146.66
  Q 408.99 146.15 409.69 145.21
  Q 410.50 144.11 410.59 144.03
  Q 425.71 128.68 440.96 113.46
  Q 473.69 80.81 506.34 47.91
  Q 507.07 47.17 507.26 48.20
  Q 507.69 50.56 507.08 51.37
  Q 505.00 54.12 502.58 56.58
  Q 447.36 112.79 408.69 150.44
  Q 407.57 151.52 406.79 150.25
  Z"
/>
<path fill="#f4f4f4" d="
  M 406.77 170.39
  L 406.79 162.50
  Q 407.28 164.30 407.00 165.25
  Q 406.60 166.60 407.51 166.75
  A 1.17 0.78 -56.3 0 0 408.35 166.40
  L 503.51 70.99
  A 1.16 1.15 44.1 0 1 505.12 70.97
  Q 506.83 72.58 504.99 74.25
  Q 503.23 75.86 503.17 75.92
  Q 497.88 81.77 488.94 90.69
  Q 450.25 129.26 411.55 167.83
  Q 411.46 167.91 410.44 169.12
  Q 409.00 170.84 406.77 170.39
  Z"
/>
<path fill="#f4f4f4" d="
  M 406.79 192.75
  L 406.79 184.50
  Q 406.53 186.06 407.53 186.58
  A 0.77 0.62 -52.7 0 0 408.35 186.38
  Q 428.37 165.76 448.77 145.52
  Q 477.62 116.87 506.34 87.91
  Q 507.07 87.17 507.26 88.20
  Q 507.69 90.56 507.08 91.37
  Q 505.02 94.14 502.59 96.59
  Q 454.88 144.86 406.79 192.75
  Z"
/>
<path fill="#f4f4f4" d="
  M 319.00 301.21
  L 315.25 299.04
  Q 347.90 266.74 380.27 234.16
  Q 384.21 230.19 394.53 220.15
  Q 400.30 214.54 405.92 208.78
  Q 414.48 200.02 417.19 197.31
  Q 460.08 154.45 503.32 111.05
  A 1.29 1.28 35.6 0 1 504.80 110.81
  Q 506.85 111.82 505.53 113.55
  Q 505.52 113.56 503.87 115.31
  Q 498.32 121.19 482.25 137.25
  Q 405.43 214.06 328.69 290.94
  Q 321.35 298.29 319.00 301.21
  Z"
/>
<path fill="#f4f4f4" d="
  M 331.71 308.00
  L 328.18 306.23
  L 506.41 127.96
  Q 507.42 126.96 507.42 128.35
  L 507.44 131.44
  A 3.30 0.47 -44.0 0 1 505.69 133.69
  L 331.71 308.00
  Z"
/>
<path fill="#f4f4f4" d="
  M 345.75 314.96
  L 341.73 312.77
  L 503.32 151.05
  A 1.30 1.28 -53.9 0 1 504.80 150.81
  Q 507.16 151.97 505.05 154.10
  Q 504.42 154.73 504.35 154.80
  Q 499.83 159.69 487.00 172.50
  Q 379.27 280.11 346.19 313.44
  Q 345.81 313.82 345.75 314.96
  Z"
/>
<path fill="#f4f4f4" d="
  M 359.75 321.46
  L 355.25 319.29
  Q 429.95 244.50 504.53 169.59
  Q 505.56 168.56 506.22 168.19
  Q 508.28 167.04 507.54 170.37
  Q 507.31 171.44 506.51 172.38
  Q 502.38 177.24 498.94 180.69
  Q 429.67 249.94 360.42 319.21
  A 1.72 0.73 -88.4 0 0 360.03 320.06
  L 359.75 321.46
  Z"
/>
<path fill="#f4f4f4" d="
  M 373.25 327.46
  L 369.47 325.56
  Q 379.00 315.49 407.75 286.75
  Q 455.32 239.20 503.32 191.05
  A 1.29 1.28 35.6 0 1 504.80 190.81
  Q 507.16 191.97 505.05 194.10
  Q 504.42 194.73 504.36 194.80
  Q 498.92 200.67 486.25 213.25
  Q 462.23 237.11 373.90 325.73
  Q 373.54 326.09 373.43 326.51
  Q 373.30 326.98 373.25 327.46
  Z"
/>
<path fill="#f4f4f4" d="
  M 386.75 333.29
  L 383.09 331.65
  Q 414.91 299.30 447.08 267.33
  Q 476.36 238.24 505.48 208.98
  Q 508.21 206.24 507.66 210.26
  Q 507.54 211.21 506.84 212.03
  Q 502.44 217.15 497.67 221.92
  Q 448.19 271.43 398.69 320.94
  Q 389.20 330.42 386.75 333.29
  Z"
/>
<path fill="#f4f4f4" d="
  M 317.75 279.71
  L 322.71 270.25
  Q 323.18 270.56 323.75 270.56
  A 1.38 0.94 -60.0 0 0 324.60 270.15
  L 375.90 218.86
  A 2.20 2.15 36.2 0 1 378.45 218.49
  Q 380.34 219.48 378.83 220.77
  Q 377.40 221.99 377.40 221.99
  Q 348.89 251.21 319.55 279.58
  A 1.33 0.90 -58.5 0 1 318.69 279.97
  Q 318.21 279.95 317.75 279.71
  Z"
/>
<path fill="#f4f4f4" d="
  M 400.46 339.50
  Q 399.01 339.25 396.90 337.70
  Q 484.86 249.47 502.81 231.56
  Q 505.07 229.31 505.83 232.19
  A 1.11 1.02 -34.9 0 1 505.63 233.09
  Q 503.10 236.40 501.25 238.25
  Q 488.31 251.25 415.50 324.00
  Q 404.40 335.09 400.46 339.50
  Z"
/>
<path fill="#f4f4f4" d="
  M 413.71 345.75
  L 410.50 344.21
  Q 425.63 328.74 440.96 313.46
  Q 473.69 280.81 506.34 247.91
  Q 507.07 247.17 507.26 248.20
  Q 507.69 250.56 507.08 251.37
  Q 505.02 254.14 502.60 256.60
  Q 458.40 301.42 413.71 345.75
  Z"
/>
<path fill="#f4f4f4" d="
  M 426.70 352.99
  L 423.75 351.04
  Q 439.03 335.18 454.67 319.67
  Q 478.82 295.69 503.33 271.05
  A 1.26 1.25 35.4 0 1 504.80 270.81
  Q 507.07 271.95 505.26 273.82
  Q 503.95 275.17 503.85 275.29
  Q 502.20 277.30 501.25 278.25
  Q 463.91 315.56 426.70 352.99
  Z"
/>
<path fill="#f4f4f4" d="
  M 437.28 362.08
  L 434.75 359.54
  Q 438.42 356.28 444.56 350.06
  Q 475.13 319.13 506.11 288.27
  Q 507.35 287.03 507.62 288.76
  Q 507.98 291.21 505.75 293.50
  Q 471.89 328.16 437.28 362.08
  Z"
/>
<path fill="#f4f4f4" d="
  M 446.46 373.25
  L 444.04 370.00
  Q 446.40 368.10 453.75 360.75
  Q 477.86 336.64 501.91 312.47
  Q 501.96 312.42 502.69 311.62
  Q 504.83 309.30 505.80 312.21
  A 0.94 0.86 -35.3 0 1 505.61 313.07
  Q 498.47 321.39 490.63 329.06
  Q 482.04 337.47 481.97 337.54
  Q 464.19 355.38 446.46 373.25
  Z"
/>
<path fill="#f4f4f4" d="
  M 453.96 385.50
  L 452.20 382.25
  Q 478.33 356.10 504.44 329.94
  Q 504.49 329.88 505.42 328.91
  Q 508.22 325.95 507.45 330.46
  Q 507.28 331.47 506.57 332.31
  Q 502.72 336.83 498.54 341.04
  Q 476.35 363.37 453.96 385.50
  Z"
/>
<path fill="#f4f4f4" d="
  M 460.50 398.79
  L 459.00 395.54
  L 503.31 351.06
  A 1.34 1.32 -55.0 0 1 504.81 350.79
  Q 506.91 351.76 505.45 353.44
  Q 504.40 354.64 504.29 354.80
  Q 503.65 355.64 502.91 356.41
  Q 482.04 377.93 460.50 398.79
  Z"
/>
<path fill="#fafafa" d="
  M 316.94 358.74
  Q 312.61 388.38 283.14 392.09
  Q 299.04 374.34 316.94 358.74
  Z"
/>
<path fill="#f4f4f4" d="
  M 465.96 412.75
  L 464.96 409.52
  L 505.85 368.40
  Q 507.62 366.62 507.54 369.01
  L 507.48 370.94
  A 1.50 1.20 -27.3 0 1 507.09 371.81
  Q 493.72 386.38 479.45 400.07
  Q 479.41 400.11 473.38 406.25
  Q 469.92 409.77 465.96 412.75
  Z"
/>
<path fill="#f4f4f4" d="
  M 470.71 428.50
  Q 469.77 426.17 469.84 424.57
  L 505.12 389.24
  Q 506.79 387.56 507.23 389.88
  Q 507.55 391.58 505.56 393.52
  Q 504.03 395.02 504.01 395.04
  Q 487.90 412.31 470.71 428.50
  Z"
/>
<path fill="#f4f4f4" d="
  M 474.31 444.59
  L 473.29 440.25
  Q 474.45 440.26 475.81 438.81
  Q 482.08 432.17 503.64 410.86
  A 0.74 0.69 -54.0 0 1 504.45 410.70
  Q 507.41 412.11 504.81 414.81
  Q 490.01 430.12 474.31 444.59
  Z"
/>
<path fill="#f4f4f4" d="
  M 476.93 462.20
  Q 475.68 459.11 476.34 457.79
  Q 490.06 445.01 494.69 439.94
  Q 499.60 434.56 503.17 431.63
  A 0.75 0.68 -47.8 0 1 503.99 431.55
  Q 506.36 432.96 504.19 435.19
  Q 488.61 451.21 476.93 462.20
  Z"
/>
<path fill="#f4f4f4" d="
  M 490.19 468.00
  L 487.94 468.00
  Q 487.64 467.90 487.49 467.73
  A 0.65 0.44 -44.1 0 1 487.65 466.98
  L 503.25 451.01
  A 1.27 1.26 -40.3 0 1 505.19 451.16
  Q 506.46 452.97 505.24 454.24
  Q 501.40 458.22 497.40 462.05
  Q 497.34 462.10 494.92 464.74
  Q 492.95 466.89 490.19 468.00
  Z"
/>
</svg>
