<?xml version="1.0" standalone="no"?>
<!DOCTYPE svg PUBLIC "-//W3C//DTD SVG 20010904//EN"
 "http://www.w3.org/TR/2001/REC-SVG-20010904/DTD/svg10.dtd">
<svg version="1.0" xmlns="http://www.w3.org/2000/svg"
 width="1280.000000pt" height="1280.000000pt" viewBox="0 0 1280.000000 1280.000000"
 preserveAspectRatio="xMidYMid meet">
<metadata>
Created by potrace 1.15, written by Peter Selinger 2001-2017
</metadata>
<g transform="translate(0.000000,1280.000000) scale(0.100000,-0.100000)"
fill="#ffffff" stroke="none">
<path d="M5789 11677 c-96 -27 -186 -98 -274 -218 l-47 -64 -49 3 c-101 7
-192 -45 -244 -139 -24 -44 -29 -66 -29 -119 1 -76 18 -123 68 -178 l37 -40
-45 -144 c-114 -367 -202 -773 -276 -1265 -16 -112 -30 -208 -30 -214 0 -6
-21 5 -47 25 -564 427 -1173 793 -1573 946 -402 153 -659 155 -804 5 -72 -73
-90 -134 -90 -290 0 -93 5 -152 19 -207 l18 -77 -51 -46 c-185 -167 -64 -466
184 -453 l63 3 42 -80 c53 -104 190 -341 245 -428 24 -37 44 -69 44 -71 0 -16
364 -542 452 -653 27 -34 45 -64 41 -66 -5 -2 -35 -8 -68 -12 -33 -4 -151 -22
-262 -41 -1115 -188 -1835 -477 -1995 -801 -28 -58 -33 -77 -33 -143 0 -62 5
-85 29 -133 34 -71 127 -173 214 -234 60 -43 63 -47 56 -77 -21 -92 9 -198 73
-258 103 -98 277 -89 376 21 l38 42 122 -40 c350 -113 850 -225 1303 -292
l152 -22 -77 -106 c-135 -186 -168 -233 -294 -421 -349 -522 -567 -948 -657
-1290 -30 -111 -34 -140 -34 -260 -1 -164 16 -215 97 -298 59 -60 110 -86 200
-103 69 -12 220 -4 288 17 11 3 21 -6 30 -28 36 -87 134 -150 235 -151 164 -2
290 148 257 306 -6 29 -10 52 -9 53 0 1 62 32 136 69 139 71 247 132 383 216
43 27 80 49 83 49 4 0 65 39 138 87 73 49 139 93 148 98 38 24 173 120 341
242 99 73 182 131 184 130 1 -2 16 -95 33 -207 181 -1218 477 -2003 810 -2153
30 -13 68 -20 115 -21 60 -1 80 4 137 32 107 52 221 186 316 369 34 66 39 72
62 65 85 -23 188 7 249 73 52 57 71 104 71 179 0 98 -45 175 -138 236 l-23 15
20 66 c78 251 194 816 246 1204 9 66 18 126 21 134 3 9 16 3 47 -21 85 -69
397 -289 567 -400 489 -320 832 -498 1156 -599 249 -78 474 -80 593 -4 133 83
179 233 145 476 -11 81 -84 320 -133 432 l-21 48 35 33 c103 98 101 284 -5
380 -56 50 -116 70 -199 64 l-70 -5 -30 49 c-17 27 -31 51 -31 53 0 8 -194
312 -258 405 -86 125 -206 294 -286 401 l-63 86 151 22 c377 56 789 143 1116
236 534 152 910 352 1040 554 39 61 64 160 55 220 -10 78 -59 163 -136 240
-39 39 -75 71 -79 71 -5 0 -8 35 -7 78 0 68 -3 85 -29 132 -33 62 -96 114
-157 131 -88 24 -204 -7 -260 -69 l-19 -20 -66 25 c-341 130 -960 276 -1474
349 -71 10 -128 21 -128 25 0 3 15 26 33 50 63 83 254 354 344 489 294 440
505 840 607 1149 l31 95 45 3 c60 4 101 18 149 53 125 91 135 291 19 396 -48
43 -87 61 -156 70 -47 6 -59 13 -115 68 -82 80 -140 101 -282 101 -55 0 -121
-3 -146 -7 -207 -30 -603 -191 -912 -369 -229 -133 -486 -296 -666 -423 -111
-79 -308 -221 -350 -253 -25 -18 -48 -30 -51 -26 -4 5 -13 51 -19 103 -7 52
-30 199 -51 327 -202 1201 -517 1910 -865 1947 -28 3 -70 0 -96 -7z m188 -82
c283 -141 557 -825 727 -1815 38 -218 76 -469 76 -499 0 -15 -66 -73 -192
-166 -71 -53 -184 -148 -487 -407 -263 -225 -245 -212 -262 -196 -103 98 -564
483 -774 647 -66 51 -123 96 -127 100 -13 11 61 478 128 808 58 286 196 798
223 826 4 4 20 3 35 -3 15 -5 53 -10 84 -10 144 1 254 115 254 262 0 75 -38
157 -90 195 -20 15 -41 30 -46 34 -11 9 71 116 126 164 101 88 223 110 325 60z
m-3052 -1276 c122 -17 320 -79 490 -154 76 -33 342 -166 403 -202 197 -112
465 -283 697 -444 81 -56 347 -251 368 -269 5 -4 -1 -88 -12 -186 -29 -253
-58 -568 -71 -784 -6 -102 -13 -199 -16 -216 l-4 -30 -193 -13 c-309 -20
-1029 -91 -1073 -106 -7 -2 -21 6 -31 18 -53 59 -493 695 -493 712 0 4 -13 25
-28 48 -37 54 -140 227 -174 292 -15 28 -49 92 -76 144 l-50 94 41 31 c110 84
130 255 44 368 -43 56 -119 92 -202 94 l-70 3 -17 78 c-41 195 -7 381 83 458
81 67 209 89 384 64z m6157 -14 c44 -15 138 -87 138 -105 0 -4 -14 -13 -30
-20 -42 -17 -96 -82 -114 -138 -41 -119 5 -247 111 -308 23 -14 43 -33 43 -43
0 -19 -46 -154 -90 -266 -44 -112 -204 -428 -285 -565 -132 -223 -336 -537
-440 -676 -16 -23 -68 -93 -115 -157 -67 -92 -89 -115 -105 -111 -96 20 -749
84 -1071 105 l-191 12 -12 186 c-20 307 -80 935 -96 1006 -3 17 18 37 112 105
64 47 139 102 167 122 70 51 565 381 598 399 14 8 68 38 120 68 123 72 161 92
303 163 66 32 128 63 138 69 91 50 387 145 512 165 22 3 42 8 44 10 11 11 221
-6 263 -21z m-3965 -1238 c212 -170 297 -239 303 -246 3 -4 30 -26 60 -51 53
-43 144 -121 278 -238 34 -30 62 -58 62 -62 0 -4 -39 -43 -87 -85 -49 -43
-146 -132 -217 -199 -88 -83 -138 -123 -160 -127 -17 -4 -138 -10 -270 -14
-131 -3 -245 -9 -253 -12 -14 -5 -15 7 -9 93 18 267 39 517 56 684 39 378 43
401 56 396 7 -3 88 -65 181 -139z m1677 116 c22 -109 89 -859 98 -1088 l2 -60
-75 3 c-41 2 -167 7 -280 11 l-207 7 -158 150 c-88 82 -187 173 -222 203 -34
30 -61 58 -60 62 13 32 862 738 890 739 3 0 9 -12 12 -27z m-893 -779 c24 -20
97 -87 164 -148 66 -62 140 -132 165 -154 l45 -41 -420 -1 c-231 0 -415 4
-409 8 7 4 74 66 150 138 154 145 252 234 258 234 2 0 24 -16 47 -36z m254
-381 l169 -6 297 -297 297 -296 7 -249 c4 -137 4 -366 1 -510 l-7 -260 -302
-302 -302 -303 -459 0 -458 0 -304 303 -304 302 0 507 0 507 300 300 301 300
112 4 c241 6 491 7 652 0z m-829 -10 c-3 -5 -122 -124 -264 -265 l-257 -258
-3 59 c-3 71 13 439 20 447 3 2 90 8 194 13 267 11 318 12 310 4z m1444 -9
c111 -5 130 -9 130 -23 0 -9 5 -123 11 -254 6 -132 9 -241 7 -243 -2 -2 -125
118 -273 267 l-270 271 133 -6 c72 -3 191 -9 262 -12z m-1990 -21 c0 -10 -5
-137 -11 -283 l-11 -265 -77 -80 c-125 -129 -223 -234 -301 -322 -40 -46 -76
-83 -80 -83 -8 0 -118 121 -244 270 -54 63 -108 126 -120 140 -34 40 -297 368
-355 445 -52 68 -53 69 -30 76 58 18 640 77 1015 103 104 7 195 14 202 15 6 0
12 -7 12 -16z m2400 -3 c284 -18 802 -69 972 -96 l38 -6 -68 -86 c-253 -327
-679 -833 -707 -840 -6 -1 -32 22 -59 53 -26 31 -124 137 -218 237 -93 100
-174 193 -179 206 -5 13 -9 83 -10 155 0 73 -4 188 -8 257 -4 69 -6 128 -4
132 2 3 20 4 41 2 20 -2 111 -9 202 -14z m-3673 -147 c15 -21 30 -40 33 -43 3
-3 28 -34 55 -70 117 -154 354 -439 643 -772 l33 -38 -108 -122 c-183 -207
-449 -528 -598 -723 -33 -43 -67 -87 -75 -98 -16 -19 -18 -19 -185 8 -565 90
-1070 208 -1371 321 l-41 16 1 76 c1 68 -3 83 -30 132 -52 93 -156 148 -257
137 -58 -7 -141 -51 -168 -89 l-20 -28 -46 32 c-77 52 -160 144 -194 214 -27
54 -33 78 -32 128 3 362 782 711 2043 915 102 16 196 32 210 34 66 11 78 8
107 -30z m5013 -4 c367 -60 759 -147 1025 -228 130 -39 353 -116 361 -124 2
-2 -3 -31 -11 -64 -18 -72 -10 -131 29 -198 90 -152 310 -167 424 -29 l30 36
41 -37 c138 -125 178 -266 112 -400 -138 -280 -738 -545 -1640 -724 -127 -26
-624 -111 -644 -111 -3 0 -42 46 -87 103 -45 56 -96 120 -114 142 -18 22 -54
66 -80 98 -174 216 -245 300 -399 476 l-127 144 61 69 c217 244 490 572 654
786 l80 104 50 -6 c27 -4 133 -20 235 -37z m-3765 -914 c0 -256 -2 -464 -5
-464 -5 1 -49 49 -250 268 -155 169 -170 186 -170 192 0 9 86 105 232 260 65
70 134 145 154 168 20 22 37 41 38 41 1 0 1 -209 1 -465z m2431 220 c166 -179
194 -211 194 -222 0 -13 -146 -175 -337 -375 l-83 -87 0 462 0 462 53 -55 c28
-31 106 -114 173 -185z m-2685 -475 c53 -58 133 -143 177 -190 l80 -85 6 -145
c3 -80 9 -205 12 -279 l7 -134 -129 7 c-349 19 -1124 97 -1124 114 0 18 395
506 623 770 l141 163 56 -58 c30 -32 98 -105 151 -163z m3016 108 c138 -158
224 -261 406 -487 87 -108 165 -205 175 -216 28 -32 82 -109 82 -116 0 -17
-762 -95 -1122 -115 l-127 -7 5 54 c3 30 8 156 12 280 l7 226 76 79 c41 44
109 115 149 159 41 44 77 82 80 85 3 3 38 42 79 88 41 45 75 82 76 82 2 0 47
-51 102 -112z m-607 -684 c-6 -137 -14 -252 -18 -255 -7 -7 -504 -29 -510 -24
-2 2 116 123 263 270 147 146 269 264 272 262 2 -3 -1 -117 -7 -253z m-1837
-14 c143 -143 258 -262 256 -264 -2 -2 -89 0 -194 5 -104 4 -218 8 -251 9
l-62 0 -6 53 c-10 90 -19 457 -11 457 4 0 124 -117 268 -260z m-1463 -175
c152 -22 552 -62 795 -79 116 -9 247 -18 293 -22 74 -5 82 -8 86 -27 2 -12 9
-107 16 -212 13 -219 41 -532 71 -788 15 -132 18 -182 9 -192 -10 -12 -301
-225 -460 -337 -73 -51 -379 -248 -385 -248 -3 0 -35 -19 -72 -43 -38 -24 -81
-50 -98 -59 -16 -8 -70 -38 -120 -65 -49 -27 -134 -71 -188 -97 l-98 -47 -23
29 c-14 15 -48 41 -77 56 -42 23 -65 29 -118 29 -76 0 -121 -16 -175 -63 -46
-41 -77 -100 -85 -164 -5 -44 -9 -51 -36 -59 -16 -5 -82 -9 -145 -10 -95 0
-125 3 -170 21 -68 27 -135 89 -163 151 -26 57 -35 227 -18 327 44 260 219
662 460 1054 35 58 73 121 85 140 27 48 250 378 317 470 96 133 184 249 189
249 3 1 52 -6 110 -14z m4637 -27 c17 -24 48 -65 70 -93 78 -101 403 -576 403
-589 0 -2 17 -31 38 -63 22 -32 50 -78 64 -103 14 -25 35 -62 47 -82 l22 -37
-45 -41 c-145 -134 -87 -381 103 -437 51 -14 122 -14 162 2 11 4 22 -12 46
-72 36 -87 80 -226 88 -276 3 -17 8 -39 10 -47 12 -43 17 -95 17 -185 0 -130
-24 -200 -92 -266 -69 -67 -125 -84 -275 -83 -95 0 -142 6 -225 27 -58 15
-114 31 -125 36 -11 5 -60 23 -110 41 -241 87 -457 200 -889 464 -151 93 -383
253 -604 418 -111 84 -131 103 -127 121 16 71 75 688 96 1002 6 99 12 181 13
182 1 1 132 11 291 23 306 22 706 61 865 84 52 8 102 14 111 15 8 1 29 -18 46
-41z m-3090 -94 l222 -7 43 -41 c24 -23 99 -93 167 -156 243 -224 238 -219
219 -234 -10 -7 -50 -42 -90 -78 -161 -143 -394 -338 -578 -483 -69 -54 -144
-114 -168 -133 -29 -23 -43 -29 -46 -20 -5 12 -33 263 -56 488 -10 98 -30 356
-46 584 l-7 99 59 -6 c33 -4 159 -10 281 -13z m1731 -116 c-18 -312 -87 -1031
-101 -1045 -11 -11 -528 409 -781 635 l-118 105 98 91 c54 50 155 144 224 208
l125 117 110 2 c61 1 171 5 245 8 74 4 151 8 170 9 l35 2 -7 -132z m-619 102
c-1 -3 -33 -34 -73 -70 -39 -36 -121 -111 -182 -168 -167 -153 -155 -146 -190
-114 -239 219 -374 345 -374 351 0 3 185 6 410 6 226 0 410 -2 409 -5z m-259
-568 c163 -143 413 -351 628 -522 l144 -113 -7 -56 c-13 -120 -98 -614 -131
-771 -37 -173 -97 -416 -133 -536 l-21 -71 -59 0 c-101 -1 -185 -54 -233 -147
-16 -30 -22 -59 -22 -111 0 -83 25 -140 87 -197 l40 -38 -48 -82 c-207 -361
-419 -437 -629 -226 -81 81 -133 160 -211 316 -185 373 -332 926 -450 1697
l-34 220 23 20 c13 11 85 70 161 130 76 61 152 121 169 135 80 63 333 278 441
373 66 58 125 106 130 106 6 1 75 -57 155 -127z"/>
<path d="M5653 7789 c-134 -25 -226 -138 -225 -276 0 -45 -3 -63 -11 -59 -130
55 -244 38 -332 -49 -121 -121 -97 -335 48 -425 l28 -17 -45 -27 c-147 -86
-181 -285 -69 -415 39 -46 87 -74 154 -91 l44 -11 1 -67 c1 -105 53 -190 146
-236 94 -47 235 -30 306 37 22 20 24 20 33 5 24 -42 64 -79 115 -104 180 -88
394 42 394 240 0 56 1 58 23 51 12 -4 54 -9 93 -12 80 -6 132 11 192 61 87 74
118 213 70 318 -23 49 -62 95 -112 131 -18 14 -18 15 16 26 52 17 113 74 142
133 37 73 37 173 0 246 -41 82 -122 138 -214 149 l-49 6 6 42 c14 102 -58 223
-162 271 -89 42 -222 26 -288 -34 -18 -16 -20 -15 -45 14 -64 74 -166 111
-259 93z"/>
</g>
</svg>
