<?xml version="1.0" standalone="no"?>
<!DOCTYPE svg PUBLIC "-//W3C//DTD SVG 20010904//EN"
 "http://www.w3.org/TR/2001/REC-SVG-20010904/DTD/svg10.dtd">
<svg version="1.0" xmlns="http://www.w3.org/2000/svg"
 width="1280.000000pt" height="1280.000000pt" viewBox="0 0 1280.000000 1280.000000"
 preserveAspectRatio="xMidYMid meet">
<metadata>
Created by potrace 1.15, written by Peter Selinger 2001-2017
</metadata>
<g transform="translate(0.000000,1280.000000) scale(0.100000,-0.100000)"
fill="#ff5722" stroke="none">
<path d="M6115 12324 c-27 -2 -117 -9 -199 -14 -1266 -91 -2515 -625 -3471
-1486 -1066 -960 -1737 -2241 -1914 -3659 -61 -485 -57 -1044 9 -1528 233
-1702 1190 -3206 2640 -4149 565 -367 1204 -638 1865 -792 448 -103 857 -148
1345 -147 584 0 1091 72 1637 230 1348 391 2527 1270 3297 2455 307 473 543
986 706 1536 226 762 293 1589 194 2390 -202 1638 -1071 3101 -2416 4068 -859
618 -1882 993 -2948 1082 -129 11 -657 21 -745 14z"/>
</g>
</svg>
